<?xml version="1.0" encoding="UTF-8"?>
<svg width="115px" height="50px" viewBox="0 0 115 50" version="1.1" xmlns="http://www.w3.org/2000/svg" xmlns:xlink="http://www.w3.org/1999/xlink">
    <!-- Generator: Sketch 47.1 (45422) - http://www.bohemiancoding.com/sketch -->
    <title>wereldmuseum-logo</title>
    <desc>Created with Sketch.</desc>
    <defs></defs>
    <g id="Page-1" stroke="none" stroke-width="1" fill="none" fill-rule="evenodd">
        <g id="wereldmuseum-logo" fill-rule="nonzero" fill="#333333">
            <path d="M11.3446377,41.3741573 C11.4098062,41.602809 11.6710422,41.602809 11.7356489,41.3741573 L15.1895815,27.1011236 C15.2873343,26.7101124 15.5154242,26.5466292 15.8738512,26.5466292 L20.6637388,26.5466292 C21.021604,26.5466292 21.3154242,26.8410112 21.3154242,27.1988764 L21.3154242,48.7050562 C21.3154242,49.0640449 21.021604,49.3567416 20.6637388,49.3567416 L17.7963231,49.3567416 C17.4378961,49.3567416 17.1446377,49.0640449 17.1446377,48.7050562 L17.1446377,36.4213483 C17.1446377,36.2258427 16.9165478,36.161236 16.8508175,36.3567416 L13.527222,48.802809 C13.4294691,49.194382 13.2019411,49.3567416 12.8435141,49.3567416 L10.2693568,49.3567416 C9.91092982,49.3567416 9.68227813,49.194382 9.58508712,48.802809 L6.32722196,36.3567416 C6.26149162,36.161236 6.03340173,36.2258427 6.03340173,36.4213483 L6.03340173,48.7050562 C6.03340173,49.0640449 5.7401433,49.3567416 5.38171634,49.3567416 L2.51430061,49.3567416 C2.15643544,49.3567416 1.86317701,49.0640449 1.86317701,48.7050562 L1.86317701,27.1988764 C1.86317701,26.8410112 2.15643544,26.5466292 2.51430061,26.5466292 L7.33677252,26.5466292 C7.69519948,26.5466292 7.92385117,26.7101124 8.02104218,27.1011236 L11.3446377,41.3741573" id="Fill-1"></path>
            <path d="M50.0255366,39.9730337 C45.9530647,39.0601124 42.727222,37.2685393 42.727222,33.0646067 C42.727222,29.2196629 45.8878961,26.1882022 50.1890197,26.1882022 C54.5553118,26.1882022 57.6834017,29.2196629 57.6834017,33.0646067 L57.6834017,33.5544944 C57.6834017,33.9129213 57.3895815,34.2061798 57.0311545,34.2061798 L53.7407051,34.2061798 C53.3822781,34.2061798 53.0890197,33.9129213 53.0890197,33.5544944 L53.0890197,33.0646067 C53.0890197,31.7623596 52.0463231,30.6207865 50.1890197,30.6207865 C48.3643006,30.6207865 47.3536264,31.5988764 47.3536264,32.9022472 C47.3536264,34.1404494 48.5598062,34.9224719 50.2536264,35.2483146 C54.7834017,36.161236 58.1395815,38.0505618 58.1395815,42.5792135 C58.1395815,46.8157303 54.8154242,49.7157303 50.1890197,49.7157303 C45.6923905,49.7157303 42.4334017,46.5544944 42.4334017,42.5792135 L42.4334017,41.602809 C42.4334017,41.2438202 42.727222,40.9511236 43.0850871,40.9511236 L46.3766602,40.9511236 C46.7350871,40.9511236 47.0283456,41.2438202 47.0283456,41.602809 L47.0283456,42.5792135 C47.0283456,44.0780899 48.168795,45.2522472 50.1890197,45.2522472 C52.1440759,45.2522472 53.4148624,44.111236 53.4148624,42.5792135 C53.4148624,41.1792135 52.4699186,40.5275281 50.0255366,39.9730337" id="Fill-2"></path>
            <path d="M31.6204804,34.2606742 C31.6204804,36.1601124 30.0502557,37.7292135 27.8856489,37.7292135 C25.7502557,37.7292135 24.1811545,36.1601124 24.1811545,34.2606742 L24.1811545,26.8837079 C24.1811545,26.711236 24.3227276,26.5696629 24.4951995,26.5696629 L26.0805927,26.5696629 C26.2530647,26.5696629 26.3946377,26.711236 26.3946377,26.8837079 L26.3946377,34.2606742 C26.3946377,34.9522472 26.9592444,35.5174157 27.8856489,35.5174157 C28.8423905,35.5174157 29.407559,34.9522472 29.407559,34.2606742 L29.407559,26.8837079 C29.407559,26.711236 29.5491321,26.5696629 29.7210422,26.5696629 L31.3069972,26.5696629 C31.4789073,26.5696629 31.6204804,26.711236 31.6204804,26.8837079 L31.6204804,34.2606742" id="Fill-3"></path>
            <path d="M40.0474467,34.2606742 C40.0474467,36.1601124 38.477222,37.7292135 36.3126152,37.7292135 C34.177222,37.7292135 32.6081208,36.1601124 32.6081208,34.2606742 L32.6081208,26.8837079 C32.6081208,26.711236 32.7496939,26.5696629 32.9221658,26.5696629 L34.507559,26.5696629 C34.6800309,26.5696629 34.821604,26.711236 34.821604,26.8837079 L34.821604,34.2606742 C34.821604,34.9522472 35.3862107,35.5174157 36.3126152,35.5174157 C37.2693568,35.5174157 37.8345253,34.9522472 37.8345253,34.2606742 L37.8345253,26.8837079 C37.8345253,26.711236 37.9760984,26.5696629 38.1480085,26.5696629 L39.7339635,26.5696629 C39.9058736,26.5696629 40.0474467,26.711236 40.0474467,26.8837079 L40.0474467,34.2606742" id="Fill-4"></path>
            <path d="M31.6204804,46.1955056 C31.6204804,48.0938202 30.0502557,49.6640449 27.8856489,49.6640449 C25.7502557,49.6640449 24.1811545,48.0938202 24.1811545,46.1955056 L24.1811545,38.8191011 C24.1811545,38.6466292 24.3227276,38.5050562 24.4951995,38.5050562 L26.0805927,38.5050562 C26.2530647,38.5050562 26.3946377,38.6466292 26.3946377,38.8191011 L26.3946377,46.1955056 C26.3946377,46.8859551 26.9592444,47.4511236 27.8856489,47.4511236 C28.8423905,47.4511236 29.407559,46.8859551 29.407559,46.1955056 L29.407559,38.8191011 C29.407559,38.6466292 29.5491321,38.5050562 29.7210422,38.5050562 L31.3069972,38.5050562 C31.4789073,38.5050562 31.6204804,38.6466292 31.6204804,38.8191011 L31.6204804,46.1955056" id="Fill-5"></path>
            <path d="M40.0474467,46.1955056 C40.0474467,48.0938202 38.477222,49.6640449 36.3126152,49.6640449 C34.177222,49.6640449 32.6081208,48.0938202 32.6081208,46.1955056 L32.6081208,38.8191011 C32.6081208,38.6466292 32.7496939,38.5050562 32.9221658,38.5050562 L34.507559,38.5050562 C34.6800309,38.5050562 34.821604,38.6466292 34.821604,38.8191011 L34.821604,46.1955056 C34.821604,46.8859551 35.3862107,47.4511236 36.3126152,47.4511236 C37.2693568,47.4511236 37.8345253,46.8859551 37.8345253,46.1955056 L37.8345253,38.8191011 C37.8345253,38.6466292 37.9760984,38.5050562 38.1480085,38.5050562 L39.7339635,38.5050562 C39.9058736,38.5050562 40.0474467,38.6466292 40.0474467,38.8191011 L40.0474467,46.1955056" id="Fill-6"></path>
            <path d="M104.665424,41.3741573 C104.730031,41.602809 104.991267,41.602809 105.055874,41.3741573 L108.510368,27.1011236 C108.607559,26.7101124 108.836211,26.5466292 109.193514,26.5466292 L113.984525,26.5466292 C114.341829,26.5466292 114.635087,26.8410112 114.635087,27.1988764 L114.635087,48.7050562 C114.635087,49.0640449 114.341829,49.3567416 113.984525,49.3567416 L111.115986,49.3567416 C110.758121,49.3567416 110.464301,49.0640449 110.464301,48.7050562 L110.464301,36.4213483 C110.464301,36.2258427 110.237334,36.161236 110.171604,36.3567416 L106.848008,48.802809 C106.750256,49.194382 106.521604,49.3567416 106.164301,49.3567416 L103.590143,49.3567416 C103.231155,49.3567416 103.003065,49.194382 102.905312,48.802809 L99.6474467,36.3567416 C99.5817163,36.161236 99.3536264,36.2258427 99.3536264,36.4213483 L99.3536264,48.7050562 C99.3536264,49.0640449 99.060368,49.3567416 98.7019411,49.3567416 L95.8345253,49.3567416 C95.4766602,49.3567416 95.1828399,49.0640449 95.1828399,48.7050562 L95.1828399,27.1988764 C95.1828399,26.8410112 95.4766602,26.5466292 95.8345253,26.5466292 L100.656997,26.5466292 C101.015986,26.5466292 101.244076,26.7101124 101.341829,27.1011236 L104.665424,41.3741573" id="Fill-7"></path>
            <path d="M92.4811545,42.5146067 C92.4811545,46.4567416 89.2232894,49.7157303 84.727222,49.7157303 C80.2951995,49.7157303 77.0373343,46.4567416 77.0373343,42.5146067 L77.0373343,27.2 C77.0373343,26.8410112 77.3305927,26.5477528 77.6890197,26.5477528 L80.9800309,26.5477528 C81.3384579,26.5477528 81.6317163,26.8410112 81.6317163,27.2 L81.6317163,42.5146067 C81.6317163,43.9483146 82.80475,45.1213483 84.727222,45.1213483 C86.7143006,45.1213483 87.8873343,43.9483146 87.8873343,42.5146067 L87.8873343,27.2 C87.8873343,26.8410112 88.1811545,26.5477528 88.5390197,26.5477528 L91.8305927,26.5477528 C92.1884579,26.5477528 92.4811545,26.8410112 92.4811545,27.2 L92.4811545,42.5146067" id="Fill-8"></path>
            <path d="M62.8058736,35.1168539 C62.8058736,35.2101124 62.8693568,35.2735955 62.9626152,35.2735955 L66.6581208,35.2735955 C66.8294691,35.2735955 66.9699186,35.4129213 66.9699186,35.5842697 L66.9699186,37.1432584 C66.9699186,37.3157303 66.8294691,37.4561798 66.6581208,37.4561798 L60.9345253,37.4561798 C60.763177,37.4561798 60.6227276,37.3157303 60.6227276,37.1432584 L60.6227276,26.8516854 C60.6227276,26.6808989 60.763177,26.5404494 60.9345253,26.5404494 L66.5957613,26.5404494 C66.7682332,26.5404494 66.907559,26.6808989 66.907559,26.8516854 L66.907559,28.4123596 C66.907559,28.5820225 66.7682332,28.7235955 66.5957613,28.7235955 L62.9626152,28.7235955 C62.8693568,28.7235955 62.8058736,28.7865169 62.8058736,28.8786517 L62.8058736,30.7505618 C62.8058736,30.8449438 62.8693568,30.9067416 62.9626152,30.9067416 L66.4704804,30.9067416 C66.6429523,30.9067416 66.7834017,31.047191 66.7834017,31.2191011 L66.7834017,32.7786517 C66.7834017,32.9494382 66.6429523,33.088764 66.4704804,33.088764 L62.9626152,33.088764 C62.8693568,33.088764 62.8058736,33.1516854 62.8058736,33.2449438 L62.8058736,35.1168539" id="Fill-9"></path>
            <path d="M70.0794691,35.1168539 C70.0794691,35.2101124 70.1423905,35.2735955 70.2367725,35.2735955 L73.9345253,35.2735955 C74.1064354,35.2735955 74.2468849,35.4129213 74.2468849,35.5842697 L74.2468849,37.1432584 C74.2468849,37.3157303 74.1064354,37.4561798 73.9345253,37.4561798 L68.2086826,37.4561798 C68.0378961,37.4561798 67.8974467,37.3157303 67.8974467,37.1432584 L67.8974467,26.8516854 C67.8974467,26.6808989 68.0378961,26.5404494 68.2086826,26.5404494 L73.8727276,26.5404494 C74.0451995,26.5404494 74.1845253,26.6808989 74.1845253,26.8516854 L74.1845253,28.4123596 C74.1845253,28.5820225 74.0451995,28.7235955 73.8727276,28.7235955 L70.2367725,28.7235955 C70.1423905,28.7235955 70.0794691,28.7865169 70.0794691,28.8786517 L70.0794691,30.7505618 C70.0794691,30.8449438 70.1423905,30.9067416 70.2367725,30.9067416 L73.7480085,30.9067416 C73.918795,30.9067416 74.0592444,31.047191 74.0592444,31.2191011 L74.0592444,32.7786517 C74.0592444,32.9494382 73.918795,33.088764 73.7480085,33.088764 L70.2367725,33.088764 C70.1423905,33.088764 70.0794691,33.1516854 70.0794691,33.2449438 L70.0794691,35.1168539" id="Fill-10"></path>
            <path d="M62.8058736,46.9724719 C62.8058736,47.0657303 62.8693568,47.1286517 62.9626152,47.1286517 L66.6581208,47.1286517 C66.8294691,47.1286517 66.9699186,47.2691011 66.9699186,47.4410112 L66.9699186,48.9994382 C66.9699186,49.1713483 66.8294691,49.3106742 66.6581208,49.3106742 L60.9345253,49.3106742 C60.763177,49.3106742 60.6227276,49.1713483 60.6227276,48.9994382 L60.6227276,38.7078652 C60.6227276,38.5370787 60.763177,38.3955056 60.9345253,38.3955056 L66.5957613,38.3955056 C66.7682332,38.3955056 66.907559,38.5370787 66.907559,38.7078652 L66.907559,40.2674157 C66.907559,40.4382022 66.7682332,40.5786517 66.5957613,40.5786517 L62.9626152,40.5786517 C62.8693568,40.5786517 62.8058736,40.641573 62.8058736,40.7348315 L62.8058736,42.6067416 C62.8058736,42.7 62.8693568,42.7623596 62.9626152,42.7623596 L66.4704804,42.7623596 C66.6429523,42.7623596 66.7834017,42.902809 66.7834017,43.0741573 L66.7834017,44.6331461 C66.7834017,44.8044944 66.6429523,44.9449438 66.4704804,44.9449438 L62.9626152,44.9449438 C62.8693568,44.9449438 62.8058736,45.0061798 62.8058736,45.1005618 L62.8058736,46.9724719" id="Fill-11"></path>
            <path d="M70.0794691,46.9724719 C70.0794691,47.0657303 70.1423905,47.1286517 70.2367725,47.1286517 L73.9345253,47.1286517 C74.1064354,47.1286517 74.2468849,47.2691011 74.2468849,47.4410112 L74.2468849,48.9994382 C74.2468849,49.1713483 74.1064354,49.3106742 73.9345253,49.3106742 L68.2086826,49.3106742 C68.0378961,49.3106742 67.8974467,49.1713483 67.8974467,48.9994382 L67.8974467,38.7078652 C67.8974467,38.5370787 68.0378961,38.3955056 68.2086826,38.3955056 L73.8727276,38.3955056 C74.0451995,38.3955056 74.1845253,38.5370787 74.1845253,38.7078652 L74.1845253,40.2674157 C74.1845253,40.4382022 74.0451995,40.5786517 73.8727276,40.5786517 L70.2367725,40.5786517 C70.1423905,40.5786517 70.0794691,40.641573 70.0794691,40.7348315 L70.0794691,42.6067416 C70.0794691,42.7 70.1423905,42.7623596 70.2367725,42.7623596 L73.7480085,42.7623596 C73.918795,42.7623596 74.0592444,42.902809 74.0592444,43.0741573 L74.0592444,44.6331461 C74.0592444,44.8044944 73.918795,44.9449438 73.7480085,44.9449438 L70.2367725,44.9449438 C70.1423905,44.9449438 70.0794691,45.0061798 70.0794691,45.1005618 L70.0794691,46.9724719" id="Fill-12"></path>
            <path d="M94.1120534,4.70168539 C93.915986,4.70168539 93.7862107,4.83202247 93.7862107,5.02752809 L93.7862107,18.061236 C93.7862107,18.2561798 93.915986,18.3870787 94.1120534,18.3870787 L96.7182332,18.3870787 C98.2171096,18.3870787 99.2277838,17.1808989 99.3907051,15.747191 C99.715986,13.0106742 99.715986,10.0775281 99.3907051,7.34101124 C99.2277838,5.90674157 98.2171096,4.70168539 96.7182332,4.70168539 L94.1120534,4.70168539 Z M96.7182332,0.139325843 C100.72666,0.139325843 103.528346,3.43089888 103.984525,7.34101124 C104.310368,10.0775281 104.310368,13.0106742 103.984525,15.747191 C103.528346,19.6578652 100.72666,22.9483146 96.7182332,22.9483146 L89.8760984,22.9483146 C89.5176714,22.9483146 89.224413,22.655618 89.224413,22.2966292 L89.224413,0.791573034 C89.224413,0.433146067 89.5176714,0.139325843 89.8760984,0.139325843 L96.7182332,0.139325843 L96.7182332,0.139325843 Z" id="Fill-13"></path>
            <path d="M79.5957613,18.061236 C79.5957613,18.2561798 79.7260984,18.3870787 79.9221658,18.3870787 L86.7643006,18.3870787 C87.1227276,18.3870787 87.415986,18.6797753 87.415986,19.0382022 L87.415986,22.2966292 C87.415986,22.655618 87.1227276,22.9483146 86.7643006,22.9483146 L75.6856489,22.9483146 C75.3277838,22.9483146 75.0345253,22.655618 75.0345253,22.2966292 L75.0345253,0.791573034 C75.0345253,0.433146067 75.3277838,0.139325843 75.6856489,0.139325843 L78.9446377,0.139325843 C79.3025029,0.139325843 79.5957613,0.433146067 79.5957613,0.791573034 L79.5957613,18.061236" id="Fill-14"></path>
            <path d="M47.3086826,4.70168539 C47.113177,4.70168539 46.9828399,4.83202247 46.9828399,5.02752809 L46.9828399,8.93764045 C46.9828399,9.13258427 47.113177,9.26348315 47.3086826,9.26348315 L50.2412669,9.26348315 C51.4794691,9.26348315 52.5221658,8.25337079 52.5221658,6.98202247 C52.5221658,5.74438202 51.4794691,4.70168539 50.2412669,4.70168539 L47.3086826,4.70168539 Z M47.3086826,13.8247191 C47.113177,13.8247191 46.9828399,13.9550562 46.9828399,14.1505618 L46.9828399,22.2966292 C46.9828399,22.655618 46.6895815,22.9483146 46.3311545,22.9483146 L43.0727276,22.9483146 C42.7143006,22.9483146 42.4210422,22.655618 42.4210422,22.2966292 L42.4210422,0.791573034 C42.4210422,0.433146067 42.7143006,0.139325843 43.0727276,0.139325843 L50.2412669,0.139325843 C53.9884579,0.139325843 57.0834017,3.23483146 57.0834017,6.98202247 C57.0834017,9.49157303 56.0086826,11.1859551 53.6951995,12.7494382 C53.2390197,13.0752809 53.271604,13.3365169 53.4996939,13.8247191 L56.9862107,21.9707865 C57.2137388,22.4595506 57.018795,22.9483146 56.3671096,22.9483146 L53.0109298,22.9483146 C52.4895815,22.9483146 52.2289073,22.6876404 52.065986,22.2966292 L48.7423905,14.2483146 C48.677222,14.0859551 48.5143006,13.8247191 48.1558736,13.8247191 L47.3086826,13.8247191 L47.3086826,13.8247191 Z" id="Fill-15"></path>
            <path d="M9.915986,22.9483146 L5.38677252,22.9483146 C5.09351409,22.9483146 4.83283993,22.7853933 4.76767139,22.4595506 L0.401379258,0.791573034 C0.336210719,0.465730337 0.531716337,0.139325843 1.05306465,0.139325843 L4.31149162,0.139325843 C4.60475004,0.139325843 4.8654242,0.270224719 4.93059274,0.629213483 L7.60250285,14.9977528 C7.63508712,15.161236 7.70025566,15.2258427 7.83059274,15.2258427 L8.02609836,15.2258427 C8.15643544,15.2258427 8.22160398,15.161236 8.25418825,14.9977528 L10.4373343,0.629213483 C10.5025029,0.302808989 10.763177,0.139325843 11.0564354,0.139325843 L13.9884579,0.139325843 C14.2817163,0.139325843 14.5429523,0.302808989 14.6081208,0.629213483 L16.8232894,14.9977528 C16.8564354,15.161236 16.921604,15.2258427 17.0519411,15.2258427 L17.2474467,15.2258427 C17.3777838,15.2258427 17.4423905,15.161236 17.4755366,14.9977528 L20.1468849,0.629213483 C20.2126152,0.270224719 20.4727276,0.139325843 20.7665478,0.139325843 L24.024413,0.139325843 C24.5457613,0.139325843 24.7418287,0.465730337 24.6760984,0.791573034 L20.277222,22.4595506 C20.2126152,22.7853933 19.9513793,22.9483146 19.6581208,22.9483146 L15.1294691,22.9483146 C14.8362107,22.9483146 14.5755366,22.7853933 14.510368,22.4595506 L12.7182332,11.8696629 C12.6856489,11.6089888 12.3598062,11.6089888 12.327222,11.8696629 L10.5350871,22.4595506 C10.4699186,22.7853933 10.2092444,22.9483146 9.915986,22.9483146" id="Fill-16"></path>
            <path d="M28.4451995,8.71629213 C28.4451995,8.80955056 28.5081208,8.87247191 28.6019411,8.87247191 L32.2974467,8.87247191 C32.468795,8.87247191 32.6092444,9.01179775 32.6092444,9.18370787 L32.6092444,10.7432584 C32.6092444,10.9146067 32.468795,11.055618 32.2974467,11.055618 L26.574413,11.055618 C26.4025029,11.055618 26.2626152,10.9146067 26.2626152,10.7432584 L26.2626152,0.451123596 C26.2626152,0.279775281 26.4025029,0.139325843 26.574413,0.139325843 L32.2350871,0.139325843 C32.4069972,0.139325843 32.5468849,0.279775281 32.5468849,0.451123596 L32.5468849,2.01179775 C32.5468849,2.18202247 32.4069972,2.32303371 32.2350871,2.32303371 L28.6019411,2.32303371 C28.5081208,2.32303371 28.4451995,2.38595506 28.4451995,2.47808989 L28.4451995,4.35 C28.4451995,4.44438202 28.5081208,4.50561798 28.6019411,4.50561798 L32.110368,4.50561798 C32.2822781,4.50561798 32.4221658,4.64662921 32.4221658,4.81853933 L32.4221658,6.37752809 C32.4221658,6.5488764 32.2822781,6.68876404 32.110368,6.68876404 L28.6019411,6.68876404 C28.5081208,6.68876404 28.4451995,6.7511236 28.4451995,6.84438202 L28.4451995,8.71629213" id="Fill-17"></path>
            <path d="M35.7193568,8.71629213 C35.7193568,8.80955056 35.7817163,8.87247191 35.8755366,8.87247191 L39.5704804,8.87247191 C39.7423905,8.87247191 39.8828399,9.01179775 39.8828399,9.18370787 L39.8828399,10.7432584 C39.8828399,10.9146067 39.7423905,11.055618 39.5704804,11.055618 L33.8480085,11.055618 C33.6760984,11.055618 33.5362107,10.9146067 33.5362107,10.7432584 L33.5362107,0.451123596 C33.5362107,0.279775281 33.6760984,0.139325843 33.8480085,0.139325843 L39.5086826,0.139325843 C39.6805927,0.139325843 39.8204804,0.279775281 39.8204804,0.451123596 L39.8204804,2.01179775 C39.8204804,2.18202247 39.6805927,2.32303371 39.5086826,2.32303371 L35.8755366,2.32303371 C35.7817163,2.32303371 35.7193568,2.38595506 35.7193568,2.47808989 L35.7193568,4.35 C35.7193568,4.44438202 35.7817163,4.50561798 35.8755366,4.50561798 L39.3834017,4.50561798 C39.5553118,4.50561798 39.6951995,4.64662921 39.6951995,4.81853933 L39.6951995,6.37752809 C39.6951995,6.5488764 39.5553118,6.68876404 39.3834017,6.68876404 L35.8755366,6.68876404 C35.7817163,6.68876404 35.7193568,6.7511236 35.7193568,6.84438202 L35.7193568,8.71629213" id="Fill-18"></path>
            <path d="M28.4451995,20.5719101 C28.4451995,20.6657303 28.5081208,20.7275281 28.6019411,20.7275281 L32.2974467,20.7275281 C32.468795,20.7275281 32.6092444,20.8679775 32.6092444,21.0404494 L32.6092444,22.5988764 C32.6092444,22.7707865 32.468795,22.9106742 32.2974467,22.9106742 L26.574413,22.9106742 C26.4025029,22.9106742 26.2626152,22.7707865 26.2626152,22.5988764 L26.2626152,12.3078652 C26.2626152,12.1359551 26.4025029,11.994382 26.574413,11.994382 L32.2350871,11.994382 C32.4069972,11.994382 32.5468849,12.1359551 32.5468849,12.3078652 L32.5468849,13.8662921 C32.5468849,14.0376404 32.4069972,14.1780899 32.2350871,14.1780899 L28.6019411,14.1780899 C28.5081208,14.1780899 28.4451995,14.2410112 28.4451995,14.3337079 L28.4451995,16.205618 C28.4451995,16.2988764 28.5081208,16.3617978 28.6019411,16.3617978 L32.110368,16.3617978 C32.2822781,16.3617978 32.4221658,16.5022472 32.4221658,16.6730337 L32.4221658,18.2325843 C32.4221658,18.4033708 32.2822781,18.5438202 32.110368,18.5438202 L28.6019411,18.5438202 C28.5081208,18.5438202 28.4451995,18.6061798 28.4451995,18.7 L28.4451995,20.5719101" id="Fill-19"></path>
            <path d="M35.7193568,20.5719101 C35.7193568,20.6657303 35.7817163,20.7275281 35.8755366,20.7275281 L39.5704804,20.7275281 C39.7423905,20.7275281 39.8828399,20.8679775 39.8828399,21.0404494 L39.8828399,22.5988764 C39.8828399,22.7707865 39.7423905,22.9106742 39.5704804,22.9106742 L33.8480085,22.9106742 C33.6760984,22.9106742 33.5362107,22.7707865 33.5362107,22.5988764 L33.5362107,12.3078652 C33.5362107,12.1359551 33.6760984,11.994382 33.8480085,11.994382 L39.5086826,11.994382 C39.6805927,11.994382 39.8204804,12.1359551 39.8204804,12.3078652 L39.8204804,13.8662921 C39.8204804,14.0376404 39.6805927,14.1780899 39.5086826,14.1780899 L35.8755366,14.1780899 C35.7817163,14.1780899 35.7193568,14.2410112 35.7193568,14.3337079 L35.7193568,16.205618 C35.7193568,16.2988764 35.7817163,16.3617978 35.8755366,16.3617978 L39.3834017,16.3617978 C39.5553118,16.3617978 39.6951995,16.5022472 39.6951995,16.6730337 L39.6951995,18.2325843 C39.6951995,18.4033708 39.5553118,18.5438202 39.3834017,18.5438202 L35.8755366,18.5438202 C35.7817163,18.5438202 35.7193568,18.6061798 35.7193568,18.7 L35.7193568,20.5719101" id="Fill-20"></path>
            <path d="M61.3328399,8.71629213 C61.3328399,8.80955056 61.3957613,8.87247191 61.4895815,8.87247191 L65.1850871,8.87247191 C65.3569972,8.87247191 65.4974467,9.01179775 65.4974467,9.18370787 L65.4974467,10.7432584 C65.4974467,10.9146067 65.3569972,11.055618 65.1850871,11.055618 L59.4620534,11.055618 C59.2907051,11.055618 59.1508175,10.9146067 59.1508175,10.7432584 L59.1508175,0.451123596 C59.1508175,0.279775281 59.2907051,0.139325843 59.4620534,0.139325843 L65.1227276,0.139325843 C65.2946377,0.139325843 65.4350871,0.279775281 65.4350871,0.451123596 L65.4350871,2.01179775 C65.4350871,2.18202247 65.2946377,2.32303371 65.1227276,2.32303371 L61.4895815,2.32303371 C61.3957613,2.32303371 61.3328399,2.38595506 61.3328399,2.47808989 L61.3328399,4.35 C61.3328399,4.44438202 61.3957613,4.50561798 61.4895815,4.50561798 L64.9980085,4.50561798 C65.1699186,4.50561798 65.3098062,4.64662921 65.3098062,4.81853933 L65.3098062,6.37752809 C65.3098062,6.5488764 65.1699186,6.68876404 64.9980085,6.68876404 L61.4895815,6.68876404 C61.3957613,6.68876404 61.3328399,6.7511236 61.3328399,6.84438202 L61.3328399,8.71629213" id="Fill-21"></path>
            <path d="M68.6069972,8.71629213 C68.6069972,8.80955056 68.6693568,8.87247191 68.7637388,8.87247191 L72.4586826,8.87247191 C72.6300309,8.87247191 72.7710422,9.01179775 72.7710422,9.18370787 L72.7710422,10.7432584 C72.7710422,10.9146067 72.6300309,11.055618 72.4586826,11.055618 L66.7356489,11.055618 C66.5643006,11.055618 66.4238512,10.9146067 66.4238512,10.7432584 L66.4238512,0.451123596 C66.4238512,0.279775281 66.5643006,0.139325843 66.7356489,0.139325843 L72.3963231,0.139325843 C72.5682332,0.139325843 72.7081208,0.279775281 72.7081208,0.451123596 L72.7081208,2.01179775 C72.7081208,2.18202247 72.5682332,2.32303371 72.3963231,2.32303371 L68.7637388,2.32303371 C68.6693568,2.32303371 68.6069972,2.38595506 68.6069972,2.47808989 L68.6069972,4.35 C68.6069972,4.44438202 68.6693568,4.50561798 68.7637388,4.50561798 L72.271604,4.50561798 C72.4429523,4.50561798 72.5828399,4.64662921 72.5828399,4.81853933 L72.5828399,6.37752809 C72.5828399,6.5488764 72.4429523,6.68876404 72.271604,6.68876404 L68.7637388,6.68876404 C68.6693568,6.68876404 68.6069972,6.7511236 68.6069972,6.84438202 L68.6069972,8.71629213" id="Fill-22"></path>
            <path d="M61.3328399,20.5719101 C61.3328399,20.6657303 61.3957613,20.7275281 61.4895815,20.7275281 L65.1850871,20.7275281 C65.3569972,20.7275281 65.4974467,20.8679775 65.4974467,21.0404494 L65.4974467,22.5988764 C65.4974467,22.7707865 65.3569972,22.9106742 65.1850871,22.9106742 L59.4620534,22.9106742 C59.2907051,22.9106742 59.1508175,22.7707865 59.1508175,22.5988764 L59.1508175,12.3078652 C59.1508175,12.1359551 59.2907051,11.994382 59.4620534,11.994382 L65.1227276,11.994382 C65.2946377,11.994382 65.4350871,12.1359551 65.4350871,12.3078652 L65.4350871,13.8662921 C65.4350871,14.0376404 65.2946377,14.1780899 65.1227276,14.1780899 L61.4895815,14.1780899 C61.3957613,14.1780899 61.3328399,14.2410112 61.3328399,14.3337079 L61.3328399,16.205618 C61.3328399,16.2988764 61.3957613,16.3617978 61.4895815,16.3617978 L64.9980085,16.3617978 C65.1699186,16.3617978 65.3098062,16.5022472 65.3098062,16.6730337 L65.3098062,18.2325843 C65.3098062,18.4033708 65.1699186,18.5438202 64.9980085,18.5438202 L61.4895815,18.5438202 C61.3957613,18.5438202 61.3328399,18.6061798 61.3328399,18.7 L61.3328399,20.5719101" id="Fill-23"></path>
            <path d="M68.6069972,20.5719101 C68.6069972,20.6657303 68.6693568,20.7275281 68.7637388,20.7275281 L72.4586826,20.7275281 C72.6300309,20.7275281 72.7710422,20.8679775 72.7710422,21.0404494 L72.7710422,22.5988764 C72.7710422,22.7707865 72.6300309,22.9106742 72.4586826,22.9106742 L66.7356489,22.9106742 C66.5643006,22.9106742 66.4238512,22.7707865 66.4238512,22.5988764 L66.4238512,12.3078652 C66.4238512,12.1359551 66.5643006,11.994382 66.7356489,11.994382 L72.3963231,11.994382 C72.5682332,11.994382 72.7081208,12.1359551 72.7081208,12.3078652 L72.7081208,13.8662921 C72.7081208,14.0376404 72.5682332,14.1780899 72.3963231,14.1780899 L68.7637388,14.1780899 C68.6693568,14.1780899 68.6069972,14.2410112 68.6069972,14.3337079 L68.6069972,16.205618 C68.6069972,16.2988764 68.6693568,16.3617978 68.7637388,16.3617978 L72.271604,16.3617978 C72.4429523,16.3617978 72.5828399,16.5022472 72.5828399,16.6730337 L72.5828399,18.2325843 C72.5828399,18.4033708 72.4429523,18.5438202 72.271604,18.5438202 L68.7637388,18.5438202 C68.6693568,18.5438202 68.6069972,18.6061798 68.6069972,18.7 L68.6069972,20.5719101" id="Fill-24"></path>
        </g>
    </g>
</svg>