<?xml version="1.0" encoding="UTF-8"?>
<svg width="201px" height="88px" viewBox="0 0 201 88" version="1.1" xmlns="http://www.w3.org/2000/svg" xmlns:xlink="http://www.w3.org/1999/xlink">
    <!-- Generator: Sketch 47.1 (45422) - http://www.bohemiancoding.com/sketch -->
    <title>afrikamuseum-logo</title>
    <desc>Created with Sketch.</desc>
    <defs></defs>
    <g id="Page-1" stroke="none" stroke-width="1" fill="none" fill-rule="evenodd">
        <g id="afrikamuseum-logo" fill-rule="nonzero" fill="#333333">
            <g id="Group">
                <path d="M116.1,24.1 C115.9,23.9 115.5,23.9 115.5,24.3 L115.5,39.5 C115.5,40.1 115,40.7 114.3,40.7 L108.6,40.7 C108,40.7 107.4,40.2 107.4,39.5 L107.4,1.2 C107.4,0.6 107.9,0 108.6,0 L114.3,0 C114.9,0 115.5,0.5 115.5,1.2 L115.5,14.5 C115.5,14.8 115.9,14.9 116.1,14.7 L125.7,0.6 C125.9,0.4 126.1,-3.33066907e-16 127,-3.33066907e-16 L132.9,-3.33066907e-16 C134,-3.33066907e-16 134.5,1.2 133.9,2.1 L123.1,18.1 C122.6,18.9 122.6,19.3 123.1,20 L135,38.4 C135.5,39.2 135.1,40.6 133.8,40.6 L127.5,40.6 C126.6,40.6 126.3,40.2 126.2,39.9 L116.1,24.1 Z" id="Shape"></path>
                <path d="M20.6,33.8 C20.5,33.3 20.3,32.9 19.7,32.9 L11,32.9 C10.5,32.9 10.2,33.2 10.1,33.8 L8.5,39.8 C8.4,40.3 7.9,40.7 7.4,40.7 L1.3,40.7 C0.4,40.7 0,40.1 0.1,39.5 L10.5,0.9 C10.6,0.4 11.1,0 11.6,0 L19.4,0 C19.9,0 20.4,0.3 20.5,0.9 L30.8,39.5 C30.9,40 30.6,40.7 29.6,40.7 L23.5,40.7 C23,40.7 22.6,40.4 22.4,39.8 L20.6,33.8 Z M18.6,24.2 L15.8,10.3 C15.7,10.1 15.7,10.1 15.5,10.1 L15.4,10.1 C15.2,10.1 15.2,10.2 15.1,10.3 L12.3,24.2 C12.2,24.7 12.4,24.8 12.8,24.8 L18.1,24.8 C18.4,24.8 18.7,24.6 18.6,24.2 Z" id="Shape"></path>
                <path d="M157.5,33.8 C157.4,33.3 157.2,32.9 156.6,32.9 L147.8,32.9 C147.3,32.9 147,33.2 146.9,33.8 L145.3,39.8 C145.2,40.3 144.7,40.7 144.2,40.7 L138.1,40.7 C137.2,40.7 136.8,40.1 136.9,39.5 L147.3,0.9 C147.4,0.4 147.9,-8.54871729e-15 148.4,-8.54871729e-15 L156.2,-8.54871729e-15 C156.7,-8.54871729e-15 157.2,0.3 157.3,0.9 L167.6,39.5 C167.7,40 167.4,40.7 166.4,40.7 L160.3,40.7 C159.8,40.7 159.4,40.4 159.2,39.8 L157.5,33.8 Z M155.4,24.2 L152.6,10.3 C152.5,10.1 152.5,10.1 152.3,10.1 L152.2,10.1 C152,10.1 152,10.2 151.9,10.3 L149.1,24.2 C149,24.7 149.2,24.8 149.6,24.8 L154.9,24.8 C155.3,24.8 155.5,24.6 155.4,24.2 Z" id="Shape"></path>
                <path d="M37.6,12 L37.6,18.9 C37.6,19.2 37.4,19.5 37,19.5 L34.2,19.5 C33.9,19.5 33.6,19.3 33.6,18.9 L33.6,0.6 C33.7,0.3 34,0 34.3,0 L44,0 C44.3,0 44.6,0.2 44.6,0.6 L44.6,3.4 C44.6,3.7 44.3,4 44,4 L37.9,4 C37.7,4 37.6,4.1 37.6,4.3 L37.6,7.6 C37.6,7.8 37.7,7.9 37.9,7.9 L43.7,7.9 C44,7.9 44.3,8.2 44.3,8.5 L44.3,11.3 C44.3,11.6 44.1,11.9 43.7,11.9 L37.9,11.9 C37.7,11.7 37.6,11.8 37.6,12 Z" id="Shape"></path>
                <path d="M50.4,12 L50.4,18.9 C50.4,19.2 50.2,19.5 49.8,19.5 L47,19.5 C46.7,19.5 46.4,19.3 46.4,18.9 L46.4,0.6 C46.5,0.3 46.7,0 47,0 L56.7,0 C57,0 57.3,0.2 57.3,0.6 L57.3,3.4 C57.3,3.7 57,4 56.7,4 L50.6,4 C50.4,4 50.3,4.1 50.3,4.3 L50.3,7.6 C50.3,7.8 50.4,7.9 50.6,7.9 L56.4,7.9 C56.7,7.9 57,8.2 57,8.5 L57,11.3 C57,11.6 56.8,11.9 56.4,11.9 L50.6,11.9 C50.5,11.7 50.4,11.8 50.4,12 Z" id="Shape"></path>
                <path d="M37.6,33.3 L37.6,40.2 C37.6,40.5 37.4,40.8 37,40.8 L34.2,40.8 C33.9,40.8 33.6,40.6 33.6,40.2 L33.6,21.9 C33.6,21.6 33.8,21.3 34.2,21.3 L44,21.3 C44.3,21.3 44.6,21.5 44.6,21.9 L44.6,24.7 C44.6,25 44.3,25.3 44,25.3 L37.9,25.3 C37.7,25.3 37.6,25.4 37.6,25.6 L37.6,28.9 C37.6,29.1 37.7,29.2 37.9,29.2 L43.7,29.2 C44,29.2 44.3,29.5 44.3,29.8 L44.3,32.6 C44.3,32.9 44.1,33.2 43.7,33.2 L37.9,33.2 C37.7,33 37.6,33.1 37.6,33.3 Z" id="Shape"></path>
                <path d="M50.4,33.3 L50.4,40.2 C50.4,40.5 50.2,40.8 49.8,40.8 L47,40.8 C46.7,40.8 46.4,40.6 46.4,40.2 L46.4,21.9 C46.4,21.6 46.6,21.3 47,21.3 L56.7,21.3 C57,21.3 57.3,21.5 57.3,21.9 L57.3,24.7 C57.3,25 57,25.3 56.7,25.3 L50.6,25.3 C50.4,25.3 50.3,25.4 50.3,25.6 L50.3,28.9 C50.3,29.1 50.4,29.2 50.6,29.2 L56.4,29.2 C56.7,29.2 57,29.5 57,29.8 L57,32.6 C57,32.9 56.8,33.2 56.4,33.2 L50.6,33.2 C50.5,33 50.4,33.1 50.4,33.3 Z" id="Shape"></path>
                <path d="M70.4,24.4 C70.1,24.4 69.8,24.6 69.8,25 L69.8,39.5 C69.8,40.1 69.3,40.7 68.6,40.7 L62.8,40.7 C62.2,40.7 61.6,40.2 61.6,39.5 L61.6,1.2 C61.6,0.6 62.1,0 62.8,0 L75.6,0 C82.3,0 87.8,5.5 87.8,12.2 C87.8,16.7 85.9,19.7 81.8,22.5 C81,23.1 81,23.5 81.5,24.4 L87.7,38.9 C88.1,39.8 87.8,40.6 86.6,40.6 L80.6,40.6 C79.7,40.6 79.2,40.1 78.9,39.4 L73,25.1 C72.9,24.8 72.6,24.3 72,24.3 L70.4,24.3 L70.4,24.4 Z M70.4,8.1 C70.1,8.1 69.8,8.3 69.8,8.7 L69.8,15.7 C69.8,16 70,16.3 70.4,16.3 L75.6,16.3 C77.8,16.3 79.7,14.5 79.7,12.2 C79.7,10 77.8,8.1 75.6,8.1 L70.4,8.1 Z" id="Shape"></path>
                <g transform="translate(92.000000, 0.000000)" id="Shape">
                    <path d="M4.4,18.9 C4.4,19.2 4.2,19.5 3.8,19.5 L1,19.5 C0.7,19.5 0.4,19.3 0.4,18.9 L0.4,0.6 C0.4,0.3 0.6,0 1,0 L3.8,0 C4.1,0 4.4,0.2 4.4,0.6 L4.4,18.9 Z"></path>
                    <path d="M10.4,18.9 C10.4,19.2 10.2,19.5 9.8,19.5 L7,19.5 C6.7,19.5 6.4,19.3 6.4,18.9 L6.4,0.6 C6.5,0.2 6.7,0 7,0 L9.8,0 C10.1,0 10.4,0.2 10.4,0.6 L10.4,18.9 L10.4,18.9 Z"></path>
                    <path d="M4.4,40.1 C4.4,40.4 4.2,40.7 3.8,40.7 L1,40.7 C0.7,40.7 0.4,40.5 0.4,40.1 L0.4,21.8 C0.4,21.5 0.6,21.2 1,21.2 L3.8,21.2 C4.1,21.2 4.4,21.4 4.4,21.8 L4.4,40.1 Z"></path>
                    <path d="M10.4,40.1 C10.4,40.4 10.2,40.7 9.8,40.7 L7,40.7 C6.7,40.7 6.4,40.5 6.4,40.1 L6.4,21.8 C6.4,21.5 6.6,21.2 7,21.2 L9.8,21.2 C10.1,21.2 10.4,21.4 10.4,21.8 L10.4,40.1 L10.4,40.1 Z"></path>
                </g>
            </g>
            <g id="Group" transform="translate(0.000000, 46.000000)">
                <path d="M16.9,27.1 C17,27.5 17.5,27.5 17.6,27.1 L23.7,1.7 C23.9,1 24.3,0.7 24.9,0.7 L33.4,0.7 C34,0.7 34.6,1.2 34.6,1.9 L34.6,40.2 C34.6,40.8 34.1,41.4 33.4,41.4 L28.3,41.4 C27.7,41.4 27.1,40.9 27.1,40.2 L27.1,18.3 C27.1,18 26.7,17.8 26.6,18.2 L20.7,40.4 C20.5,41.1 20.1,41.4 19.5,41.4 L15,41.4 C14.4,41.4 14,41.1 13.8,40.4 L7.9,18.2 C7.8,17.9 7.4,18 7.4,18.3 L7.4,40.2 C7.4,40.8 6.9,41.4 6.2,41.4 L1.2,41.4 C0.6,41.4 0,40.9 0,40.2 L0,1.9 C0,1.3 0.5,0.7 1.2,0.7 L9.8,0.7 C10.4,0.7 10.8,1 11,1.7 L16.9,27.1 Z" id="Shape"></path>
                <path d="M85.7,24.6 C78.5,23 72.7,19.8 72.7,12.3 C72.7,5.5 78.3,0.1 86,0.1 C93.8,0.1 99.3,5.5 99.3,12.3 L99.3,13.2 C99.3,13.8 98.8,14.4 98.1,14.4 L92.2,14.4 C91.6,14.4 91,13.9 91,13.2 L91,12.3 C91,10 89.1,8 85.8,8 C82.6,8 80.8,9.7 80.8,12.1 C80.8,14.3 82.9,15.7 86,16.3 C94.1,17.9 100,21.3 100,29.3 C100,36.8 94.1,42 85.8,42 C77.8,42 72,36.4 72,29.3 L72,27.6 C72,27 72.5,26.4 73.2,26.4 L79.1,26.4 C79.7,26.4 80.3,26.9 80.3,27.6 L80.3,29.3 C80.3,32 82.3,34.1 85.9,34.1 C89.4,34.1 91.6,32.1 91.6,29.3 C91.8,26.8 90.1,25.6 85.7,24.6 Z" id="Shape"></path>
                <g transform="translate(39.000000, 0.000000)" id="Shape">
                    <path d="M14,14.5 C14,17.9 11.2,20.7 7.4,20.7 C3.6,20.7 0.8,17.9 0.8,14.5 L0.8,1.3 C0.8,1 1.1,0.7 1.4,0.7 L4.2,0.7 C4.5,0.7 4.8,1 4.8,1.3 L4.8,14.4 C4.8,15.6 5.8,16.6 7.5,16.6 C9.2,16.6 10.2,15.6 10.2,14.4 L10.2,1.3 C10.2,1 10.5,0.7 10.8,0.7 L13.6,0.7 C13.9,0.7 14.2,1 14.2,1.3 L14.2,14.5 L14,14.5 Z"></path>
                    <path d="M29,14.5 C29,17.9 26.2,20.7 22.4,20.7 C18.6,20.7 15.8,17.9 15.8,14.5 L15.8,1.3 C15.8,1 16.1,0.7 16.4,0.7 L19.2,0.7 C19.5,0.7 19.8,1 19.8,1.3 L19.8,14.4 C19.8,15.6 20.8,16.6 22.5,16.6 C24.2,16.6 25.2,15.6 25.2,14.4 L25.2,1.3 C25.2,1 25.5,0.7 25.8,0.7 L28.6,0.7 C28.9,0.7 29.2,1 29.2,1.3 L29.2,14.5 L29,14.5 Z"></path>
                    <path d="M14,35.7 C14,39.1 11.2,41.9 7.4,41.9 C3.6,41.9 0.8,39.1 0.8,35.7 L0.8,22.6 C0.8,22.3 1.1,22 1.4,22 L4.2,22 C4.5,22 4.8,22.3 4.8,22.6 L4.8,35.7 C4.8,36.9 5.8,37.9 7.5,37.9 C9.2,37.9 10.2,36.9 10.2,35.7 L10.2,22.6 C10.2,22.3 10.5,22 10.8,22 L13.6,22 C13.9,22 14.2,22.3 14.2,22.6 L14.2,35.7 L14,35.7 Z"></path>
                    <path d="M29,35.7 C29,39.1 26.2,41.9 22.4,41.9 C18.6,41.9 15.8,39.1 15.8,35.7 L15.8,22.6 C15.8,22.3 16.1,22 16.4,22 L19.2,22 C19.5,22 19.8,22.3 19.8,22.6 L19.8,35.7 C19.8,36.9 20.8,37.9 22.5,37.9 C24.2,37.9 25.2,36.9 25.2,35.7 L25.2,22.6 C25.2,22.3 25.5,22 25.8,22 L28.6,22 C28.9,22 29.2,22.3 29.2,22.6 L29.2,35.7 L29,35.7 Z"></path>
                </g>
                <path d="M183,27.1 C183.1,27.5 183.6,27.5 183.7,27.1 L189.8,1.7 C190,1 190.4,0.7 191,0.7 L199.5,0.7 C200.1,0.7 200.7,1.2 200.7,1.9 L200.7,40.2 C200.7,40.8 200.2,41.4 199.5,41.4 L194.4,41.4 C193.8,41.4 193.2,40.9 193.2,40.2 L193.2,18.3 C193.2,18 192.8,17.8 192.7,18.2 L186.8,40.4 C186.6,41.1 186.2,41.4 185.6,41.4 L181,41.4 C180.4,41.4 180,41.1 179.8,40.4 L174,18.2 C173.9,17.9 173.5,18 173.5,18.3 L173.5,40.2 C173.5,40.8 173,41.4 172.3,41.4 L167.2,41.4 C166.6,41.4 166,40.9 166,40.2 L166,1.9 C166,1.3 166.5,0.7 167.2,0.7 L175.8,0.7 C176.4,0.7 176.8,1 177,1.7 L183,27.1 Z" id="Shape"></path>
                <path d="M161.3,29.1 C161.3,36.1 155.5,41.9 147.5,41.9 C139.6,41.9 133.8,36.1 133.8,29.1 L133.8,1.9 C133.8,1.3 134.3,0.7 135,0.7 L140.9,0.7 C141.5,0.7 142.1,1.2 142.1,1.9 L142.1,29.2 C142.1,31.8 144.2,33.8 147.6,33.8 C151.1,33.8 153.2,31.7 153.2,29.2 L153.2,1.9 C153.2,1.3 153.7,0.7 154.4,0.7 L160.3,0.7 C160.9,0.7 161.5,1.2 161.5,1.9 L161.5,29.1 L161.3,29.1 Z" id="Shape"></path>
                <g transform="translate(104.000000, 0.000000)" id="Shape">
                    <path d="M4.5,16 C4.5,16.2 4.6,16.3 4.8,16.3 L11.4,16.3 C11.7,16.3 12,16.5 12,16.9 L12,19.7 C12,20 11.8,20.3 11.4,20.3 L1.2,20.3 C0.9,20.3 0.6,20.1 0.6,19.7 L0.6,1.3 C0.6,1 0.8,0.7 1.2,0.7 L11.3,0.7 C11.6,0.7 11.9,0.9 11.9,1.3 L11.9,4 C11.9,4.3 11.7,4.6 11.3,4.6 L4.8,4.6 C4.6,4.6 4.5,4.7 4.5,4.9 L4.5,8.2 C4.5,8.4 4.6,8.5 4.8,8.5 L11,8.5 C11.3,8.5 11.6,8.7 11.6,9.1 L11.6,11.9 C11.6,12.2 11.4,12.5 11,12.5 L4.8,12.5 C4.6,12.5 4.5,12.6 4.5,12.8 L4.5,16 L4.5,16 Z"></path>
                    <path d="M17.4,16 C17.4,16.2 17.5,16.3 17.7,16.3 L24.3,16.3 C24.6,16.3 24.9,16.5 24.9,16.9 L24.9,19.7 C24.9,20 24.7,20.3 24.3,20.3 L14.1,20.3 C13.8,20.3 13.5,20.1 13.5,19.7 L13.5,1.3 C13.5,1 13.7,0.7 14.1,0.7 L24.2,0.7 C24.5,0.7 24.8,0.9 24.8,1.3 L24.8,4 C24.8,4.3 24.6,4.6 24.2,4.6 L17.7,4.6 C17.5,4.6 17.4,4.7 17.4,4.9 L17.4,8.2 C17.4,8.4 17.5,8.5 17.7,8.5 L23.9,8.5 C24.2,8.5 24.5,8.7 24.5,9.1 L24.5,11.9 C24.5,12.2 24.3,12.5 23.9,12.5 L17.7,12.5 C17.5,12.5 17.4,12.6 17.4,12.8 L17.4,16 L17.4,16 Z"></path>
                    <path d="M4.5,37.1 C4.5,37.3 4.6,37.4 4.8,37.4 L11.4,37.4 C11.7,37.4 12,37.6 12,38 L12,40.8 C12,41.1 11.8,41.4 11.4,41.4 L1.2,41.4 C0.9,41.4 0.6,41.2 0.6,40.8 L0.6,22.4 C0.6,22.1 0.8,21.8 1.2,21.8 L11.3,21.8 C11.6,21.8 11.9,22.1 11.9,22.4 L11.9,25.2 C11.9,25.5 11.7,25.8 11.3,25.8 L4.8,25.8 C4.6,25.8 4.5,25.9 4.5,26.1 L4.5,29.4 C4.5,29.6 4.6,29.7 4.8,29.7 L11,29.7 C11.3,29.7 11.6,29.9 11.6,30.3 L11.6,33.1 C11.6,33.4 11.4,33.7 11,33.7 L4.8,33.7 C4.6,33.7 4.5,33.8 4.5,34 L4.5,37.1 L4.5,37.1 Z"></path>
                    <path d="M17.4,37.1 C17.4,37.3 17.5,37.4 17.7,37.4 L24.3,37.4 C24.6,37.4 24.9,37.6 24.9,38 L24.9,40.8 C24.9,41.1 24.7,41.4 24.3,41.4 L14.1,41.4 C13.8,41.4 13.5,41.2 13.5,40.8 L13.5,22.4 C13.5,22.1 13.7,21.8 14.1,21.8 L24.2,21.8 C24.5,21.8 24.8,22.1 24.8,22.4 L24.8,25.2 C24.8,25.5 24.6,25.8 24.2,25.8 L17.7,25.8 C17.5,25.8 17.4,25.9 17.4,26.1 L17.4,29.4 C17.4,29.6 17.5,29.7 17.7,29.7 L23.9,29.7 C24.2,29.7 24.5,29.9 24.5,30.3 L24.5,33.1 C24.5,33.4 24.3,33.7 23.9,33.7 L17.7,33.7 C17.5,33.7 17.4,33.8 17.4,34 L17.4,37.1 L17.4,37.1 Z"></path>
                </g>
            </g>
        </g>
    </g>
</svg>