<?xml version="1.0" encoding="UTF-8"?>
<svg width="90px" height="60px" viewBox="0 0 90 60" version="1.1" xmlns="http://www.w3.org/2000/svg" xmlns:xlink="http://www.w3.org/1999/xlink">
    <!-- Generator: Sketch 50.2 (55047) - http://www.bohemiancoding.com/sketch -->
    <title>logo-rcmc</title>
    <desc>Created with Sketch.</desc>
    <defs></defs>
    <g id="Page-1" stroke="none" stroke-width="1" fill="none" fill-rule="evenodd">
        <g id="Research-Center-Respsonive_default" transform="translate(-6.000000, -4.000000)" fill="#1A1919">
            <g id="logo-rcmc" transform="translate(6.000000, 4.000000)">
                <path d="M60.0139051,39.0784615 C60.1282117,39.0784615 60.2044161,39.0210989 60.1666423,38.8684615 L58.9283212,33.5337363 C58.9092701,33.4572527 58.8898905,33.4186813 58.8521168,33.4186813 L58.8136861,33.4186813 C58.7755839,33.4186813 58.7565328,33.4572527 58.7378102,33.5337363 L57.4991606,38.8684615 C57.4613869,39.0210989 57.5375912,39.0784615 57.6518978,39.0784615 L60.0139051,39.0784615 Z M60.7759489,41.1247253 C60.7381752,40.951978 60.585438,40.8567033 60.4143066,40.8567033 L57.2514964,40.8567033 C57.0800365,40.8567033 56.9466788,40.951978 56.8895255,41.1247253 L56.0516058,44.0498901 C55.9941241,44.2216484 55.8610949,44.3363736 55.6893066,44.3363736 L54.6418248,44.3363736 C54.3370073,44.3363736 54.2227007,44.1263736 54.2604745,43.953956 L57.8036496,31.2389011 C57.8424088,31.0671429 57.9944891,30.9524176 58.1662774,30.9524176 L59.4995255,30.9524176 C59.6713139,30.9524176 59.8233942,31.0671429 59.8618248,31.2389011 L63.405,43.953956 C63.4427737,44.1263736 63.3287956,44.3363736 63.0239781,44.3363736 L61.9764964,44.3363736 C61.8050365,44.3363736 61.6716788,44.2216484 61.6145255,44.0498901 L60.7759489,41.1247253 Z" id="Fill-1"></path>
                <path d="M33.9050365,42.3286813 C33.9050365,42.4440659 33.9812409,42.5198901 34.0955474,42.5198901 L38.6678102,42.5198901 C38.8773723,42.5198901 39.0488321,42.6923077 39.0488321,42.9023077 L39.0488321,43.953956 C39.0488321,44.1642857 38.8773723,44.3363736 38.6678102,44.3363736 L32.4762044,44.3363736 C32.2669708,44.3363736 32.0951825,44.1642857 32.0951825,43.953956 L32.0951825,31.3348352 C32.0951825,31.1245055 32.2669708,30.9524176 32.4762044,30.9524176 L38.629708,30.9524176 C38.8389416,30.9524176 39.0110584,31.1245055 39.0110584,31.3348352 L39.0110584,32.3864835 C39.0110584,32.5961538 38.8389416,32.7689011 38.629708,32.7689011 L34.0955474,32.7689011 C33.9812409,32.7689011 33.9050365,32.8447253 33.9050365,32.9601099 L33.9050365,36.4015385 C33.9050365,36.5162637 33.9812409,36.5927473 34.0955474,36.5927473 L38.420146,36.5927473 C38.629708,36.5927473 38.8011679,36.7648352 38.8011679,36.9754945 L38.8011679,38.0268132 C38.8011679,38.2374725 38.629708,38.4092308 38.420146,38.4092308 L34.0955474,38.4092308 C33.9812409,38.4092308 33.9050365,38.486044 33.9050365,38.6004396 L33.9050365,42.3286813" id="Fill-2"></path>
                <path d="M43.055146,32.7689011 C42.9401825,32.7689011 42.864635,32.8447253 42.864635,32.9601099 L42.864635,36.9754945 C42.864635,37.0898901 42.9401825,37.1667033 43.055146,37.1667033 L44.8630292,37.1667033 C46.0655474,37.1667033 47.0568613,36.1717582 47.0568613,34.9678022 C47.0568613,33.7628571 46.0655474,32.7689011 44.8630292,32.7689011 L43.055146,32.7689011 Z M43.055146,38.9828571 C42.9401825,38.9828571 42.864635,39.059011 42.864635,39.1743956 L42.864635,43.953956 C42.864635,44.1642857 42.6928467,44.3363736 42.4836131,44.3363736 L41.435146,44.3363736 C41.2262409,44.3363736 41.054781,44.1642857 41.054781,43.953956 L41.054781,31.3348352 C41.054781,31.1245055 41.2262409,30.9524176 41.435146,30.9524176 L44.8630292,30.9524176 C47.0752555,30.9524176 48.8663869,32.7494505 48.8663869,34.9678022 C48.8663869,36.420989 48.0471898,37.7017582 46.8847445,38.3901099 C46.5231022,38.6004396 46.3894161,38.7725275 46.5615328,39.117033 L48.809562,43.7630769 C48.9422628,44.0498901 48.8279562,44.3363736 48.4469343,44.3363736 L47.380073,44.3363736 C47.0752555,44.3363736 46.9418978,44.1837363 46.8275912,43.953956 L44.5769343,39.2123077 C44.519781,39.0975824 44.424854,38.9828571 44.2149635,38.9828571 L43.055146,38.9828571 Z" id="Fill-3"></path>
                <path d="M15.6370073,41.853956 C15.6908759,41.853956 15.7260219,41.8275824 15.7086131,41.7557143 L15.1275547,39.2521978 C15.1186861,39.2162637 15.1098175,39.1981319 15.0917518,39.1981319 L15.0736861,39.1981319 C15.0559489,39.1981319 15.0467518,39.2162637 15.0378832,39.2521978 L14.4571533,41.7557143 C14.4390876,41.8275824 14.4748905,41.853956 14.5284307,41.853956 L15.6370073,41.853956 Z M15.994708,42.8149451 C15.9766423,42.7335165 15.9050365,42.6886813 15.824562,42.6886813 L14.3408759,42.6886813 C14.2604015,42.6886813 14.1973358,42.7335165 14.1707299,42.8149451 L13.7775547,44.1876923 C13.7506204,44.2681319 13.6878832,44.3221978 13.6077372,44.3221978 L13.1156934,44.3221978 C12.9728102,44.3221978 12.9195985,44.222967 12.9370073,44.1425275 L14.6000365,38.1754945 C14.6174453,38.0943956 14.6893796,38.040989 14.769854,38.040989 L15.3959124,38.040989 C15.4760584,38.040989 15.5476642,38.0943956 15.5654015,38.1754945 L17.2284307,44.1425275 C17.2461679,44.222967 17.1926277,44.3221978 17.0497445,44.3221978 L16.5580292,44.3221978 C16.4775547,44.3221978 16.415146,44.2681319 16.3878832,44.1876923 L15.994708,42.8149451 Z" id="Fill-4"></path>
                <path d="M20.5436496,41.853956 C20.5975182,41.853956 20.6326642,41.8275824 20.614927,41.7557143 L20.0341971,39.2521978 C20.025,39.2162637 20.0161314,39.1981319 19.9980657,39.1981319 L19.9803285,39.1981319 C19.9625912,39.1981319 19.9533942,39.2162637 19.9441971,39.2521978 L19.3637956,41.7557143 C19.3454015,41.8275824 19.3812044,41.853956 19.435073,41.853956 L20.5436496,41.853956 Z M20.9010219,42.8149451 C20.8832847,42.7335165 20.8116788,42.6886813 20.7312044,42.6886813 L19.2471898,42.6886813 C19.1667153,42.6886813 19.1039781,42.7335165 19.0773723,42.8149451 L18.6838686,44.1876923 C18.6569343,44.2681319 18.5945255,44.3221978 18.5143796,44.3221978 L18.0223358,44.3221978 C17.8791241,44.3221978 17.8259124,44.222967 17.8436496,44.1425275 L19.5063504,38.1754945 C19.5240876,38.0943956 19.5960219,38.040989 19.6764964,38.040989 L20.3022263,38.040989 C20.3823723,38.040989 20.4539781,38.0943956 20.4720438,38.1754945 L22.1347445,44.1425275 C22.1528102,44.222967 22.0992701,44.3221978 21.9560584,44.3221978 L21.4643431,44.3221978 C21.3838686,44.3221978 21.3217883,44.2681319 21.2945255,44.1876923 L20.9010219,42.8149451 Z" id="Fill-5"></path>
                <path d="M15.6370073,34.7795604 C15.6908759,34.7795604 15.7260219,34.7525275 15.7086131,34.6813187 L15.1275547,32.1771429 C15.1186861,32.1412088 15.1098175,32.1237363 15.0917518,32.1237363 L15.0736861,32.1237363 C15.0559489,32.1237363 15.0467518,32.1412088 15.0378832,32.1771429 L14.4571533,34.6813187 C14.4390876,34.7525275 14.4748905,34.7795604 14.5284307,34.7795604 L15.6370073,34.7795604 Z M15.994708,35.7398901 C15.9766423,35.6584615 15.9050365,35.6142857 15.824562,35.6142857 L14.3408759,35.6142857 C14.2604015,35.6142857 14.1973358,35.6584615 14.1707299,35.7398901 L13.7775547,37.1126374 C13.7506204,37.1937363 13.6878832,37.2471429 13.6077372,37.2471429 L13.1156934,37.2471429 C12.9728102,37.2471429 12.9195985,37.1485714 12.9370073,37.0674725 L14.6000365,31.1004396 C14.6174453,31.02 14.6893796,30.9659341 14.769854,30.9659341 L15.3959124,30.9659341 C15.4760584,30.9659341 15.5476642,31.02 15.5654015,31.1004396 L17.2284307,37.0674725 C17.2461679,37.1485714 17.1926277,37.2471429 17.0497445,37.2471429 L16.5580292,37.2471429 C16.4775547,37.2471429 16.415146,37.1937363 16.3878832,37.1126374 L15.994708,35.7398901 Z" id="Fill-6"></path>
                <path d="M20.5436496,34.7795604 C20.5975182,34.7795604 20.6326642,34.7525275 20.614927,34.6813187 L20.0341971,32.1771429 C20.025,32.1412088 20.0161314,32.1237363 19.9980657,32.1237363 L19.9803285,32.1237363 C19.9625912,32.1237363 19.9533942,32.1412088 19.9441971,32.1771429 L19.3637956,34.6813187 C19.3454015,34.7525275 19.3812044,34.7795604 19.435073,34.7795604 L20.5436496,34.7795604 Z M20.9010219,35.7398901 C20.8832847,35.6584615 20.8116788,35.6142857 20.7312044,35.6142857 L19.2471898,35.6142857 C19.1667153,35.6142857 19.1039781,35.6584615 19.0773723,35.7398901 L18.6838686,37.1126374 C18.6569343,37.1937363 18.5945255,37.2471429 18.5143796,37.2471429 L18.0223358,37.2471429 C17.8791241,37.2471429 17.8259124,37.1485714 17.8436496,37.0674725 L19.5063504,31.1004396 C19.5240876,31.02 19.5960219,30.9659341 19.6764964,30.9659341 L20.3022263,30.9659341 C20.3823723,30.9659341 20.4539781,31.02 20.4720438,31.1004396 L22.1347445,37.0674725 C22.1528102,37.1485714 22.0992701,37.2471429 21.9560584,37.2471429 L21.4643431,37.2471429 C21.3838686,37.2471429 21.3217883,37.1937363 21.2945255,37.1126374 L20.9010219,35.7398901 Z" id="Fill-7"></path>
                <path d="M5.99551095,40.7228571 C6.03361314,40.8372527 6.14759124,40.8372527 6.18635036,40.7228571 L8.81507299,31.2771429 C8.87222628,31.0476923 9.00591241,30.9524176 9.21481752,30.9524176 L11.1580292,30.9524176 C11.3679197,30.9524176 11.5390511,31.1245055 11.5390511,31.3348352 L11.5390511,43.953956 C11.5390511,44.1642857 11.3679197,44.3363736 11.1580292,44.3363736 L10.1483212,44.3363736 C9.93908759,44.3363736 9.76729927,44.1642857 9.76729927,43.953956 L9.76729927,34.3941758 C9.76729927,34.2794505 9.63459854,34.2794505 9.61521898,34.3552747 L6.89058394,44.0116484 C6.8150365,44.2410989 6.70007299,44.3363736 6.49083942,44.3363736 L5.6910219,44.3363736 C5.48113139,44.3363736 5.36682482,44.2410989 5.29062044,44.0116484 L2.56664234,34.3552747 C2.54726277,34.2794505 2.41390511,34.2794505 2.41390511,34.3941758 L2.41390511,43.953956 C2.41390511,44.1642857 2.24277372,44.3363736 2.03288321,44.3363736 L1.02317518,44.3363736 C0.813941606,44.3363736 0.642153285,44.1642857 0.642153285,43.953956 L0.642153285,31.3348352 C0.642153285,31.1245055 0.813941606,30.9524176 1.02317518,30.9524176 L2.96638686,30.9524176 C3.17594891,30.9524176 3.30963504,31.0476923 3.36678832,31.2771429 L5.99551095,40.7228571" id="Fill-8"></path>
                <path d="M51.4372993,37.0579121 C51.4372993,37.1561538 51.3571533,37.2369231 51.2589416,37.2369231 L50.7675547,37.2369231 C50.6693431,37.2369231 50.5891971,37.1561538 50.5891971,37.0579121 L50.5891971,31.140989 C50.5891971,31.0427473 50.6693431,30.961978 50.7675547,30.961978 L51.2589416,30.961978 C51.3571533,30.961978 51.4372993,31.0427473 51.4372993,31.140989 L51.4372993,37.0579121" id="Fill-9"></path>
                <path d="M53.0385766,37.0579121 C53.0385766,37.1561538 52.9584307,37.2369231 52.860219,37.2369231 L52.3688321,37.2369231 C52.2706204,37.2369231 52.1904745,37.1561538 52.1904745,37.0579121 L52.1904745,31.140989 C52.1904745,31.0427473 52.2706204,30.961978 52.3688321,30.961978 L52.860219,30.961978 C52.9584307,30.961978 53.0385766,31.0427473 53.0385766,31.140989 L53.0385766,37.0579121" id="Fill-10"></path>
                <path d="M51.4372993,44.1474725 C51.4372993,44.246044 51.3571533,44.3264835 51.2589416,44.3264835 L50.7675547,44.3264835 C50.6693431,44.3264835 50.5891971,44.246044 50.5891971,44.1474725 L50.5891971,38.2308791 C50.5891971,38.1323077 50.6693431,38.0518681 50.7675547,38.0518681 L51.2589416,38.0518681 C51.3571533,38.0518681 51.4372993,38.1323077 51.4372993,38.2308791 L51.4372993,44.1474725" id="Fill-11"></path>
                <path d="M53.0385766,44.1474725 C53.0385766,44.246044 52.9584307,44.3264835 52.860219,44.3264835 L52.3688321,44.3264835 C52.2706204,44.3264835 52.1904745,44.246044 52.1904745,44.1474725 L52.1904745,38.2308791 C52.1904745,38.1323077 52.2706204,38.0518681 52.3688321,38.0518681 L52.860219,38.0518681 C52.9584307,38.0518681 53.0385766,38.1323077 53.0385766,38.2308791 L53.0385766,44.1474725" id="Fill-12"></path>
                <path d="M66.3812409,42.3286813 C66.3812409,42.4440659 66.4574453,42.5198901 66.5717518,42.5198901 L70.8391971,42.5198901 C71.0487591,42.5198901 71.220219,42.6923077 71.220219,42.9023077 L71.220219,43.953956 C71.220219,44.1642857 71.0487591,44.3363736 70.8391971,44.3363736 L64.9524088,44.3363736 C64.7431752,44.3363736 64.5713869,44.1642857 64.5713869,43.953956 L64.5713869,31.3348352 C64.5713869,31.1245055 64.7431752,30.9524176 64.9524088,30.9524176 L66.000219,30.9524176 C66.209781,30.9524176 66.3812409,31.1245055 66.3812409,31.3348352 L66.3812409,42.3286813" id="Fill-13"></path>
                <path d="M27.6119343,32.9601099 L27.6119343,43.9546154 C27.6119343,44.1649451 27.4404745,44.337033 27.2309124,44.337033 L26.1831022,44.337033 C25.9735401,44.337033 25.8020803,44.1649451 25.8020803,43.9546154 L25.8020803,32.9601099 C25.8020803,32.8453846 25.7258759,32.7689011 25.6115693,32.7689011 L23.0774453,32.7689011 C22.8685401,32.7689011 22.6970803,32.5968132 22.6970803,32.3871429 L22.6970803,31.3348352 C22.6970803,31.1251648 22.8685401,30.9524176 23.0774453,30.9524176 L30.3171898,30.9524176 C30.5264234,30.9524176 30.6985401,31.1251648 30.6985401,31.3348352 L30.6985401,32.3871429 C30.6985401,32.5968132 30.5264234,32.7689011 30.3171898,32.7689011 L27.8024453,32.7689011 C27.6881387,32.7689011 27.6119343,32.8453846 27.6119343,32.9601099" id="Fill-14"></path>
                <path d="M2.64218978,2.13857143 C2.52755474,2.13857143 2.45167883,2.21505495 2.45167883,2.32978022 L2.45167883,6.34516484 C2.45167883,6.46021978 2.52755474,6.53637363 2.64218978,6.53637363 L4.4520438,6.53637363 C5.65160584,6.53637363 6.64291971,5.54208791 6.64291971,4.33747253 C6.64291971,3.13318681 5.65160584,2.13857143 4.4520438,2.13857143 L2.64218978,2.13857143 Z M2.64218978,8.35285714 C2.52755474,8.35285714 2.45167883,8.42901099 2.45167883,8.54406593 L2.45167883,13.323956 C2.45167883,13.5346154 2.27989051,13.7063736 2.07065693,13.7063736 L1.02251825,13.7063736 C0.813284672,13.7063736 0.642153285,13.5346154 0.642153285,13.323956 L0.642153285,0.704835165 C0.642153285,0.494505495 0.813284672,0.322087912 1.02251825,0.322087912 L4.4520438,0.322087912 C6.66164234,0.322087912 8.45277372,2.11978022 8.45277372,4.33747253 C8.45277372,5.79065934 7.63357664,7.07175824 6.47113139,7.76010989 C6.10916058,7.97076923 5.97580292,8.14252747 6.14759124,8.4867033 L8.39562044,13.1330769 C8.52832117,13.4198901 8.41434307,13.7063736 8.03332117,13.7063736 L6.96645985,13.7063736 C6.66164234,13.7063736 6.52828467,13.5537363 6.4139781,13.323956 L4.16594891,8.58230769 C4.10879562,8.46791209 4.01386861,8.35285714 3.8039781,8.35285714 L2.64218978,8.35285714 Z" id="Fill-15"></path>
                <path d="M50.2919343,2.13857143 C50.1772993,2.13857143 50.1014234,2.21505495 50.1014234,2.32978022 L50.1014234,6.34516484 C50.1014234,6.46021978 50.1772993,6.53637363 50.2919343,6.53637363 L52.1017883,6.53637363 C53.3013504,6.53637363 54.2926642,5.54208791 54.2926642,4.33747253 C54.2926642,3.13318681 53.3013504,2.13857143 52.1017883,2.13857143 L50.2919343,2.13857143 Z M50.2919343,8.35285714 C50.1772993,8.35285714 50.1014234,8.42901099 50.1014234,8.54406593 L50.1014234,13.323956 C50.1014234,13.5346154 49.929635,13.7063736 49.7204015,13.7063736 L48.6722628,13.7063736 C48.4630292,13.7063736 48.2915693,13.5346154 48.2915693,13.323956 L48.2915693,0.704835165 C48.2915693,0.494505495 48.4630292,0.322087912 48.6722628,0.322087912 L52.1017883,0.322087912 C54.3113869,0.322087912 56.1025182,2.11978022 56.1025182,4.33747253 C56.1025182,5.79065934 55.2833212,7.07175824 54.1208759,7.76010989 C53.7589051,7.97076923 53.6255474,8.14252747 53.7973358,8.4867033 L56.045365,13.1330769 C56.1780657,13.4198901 56.0640876,13.7063736 55.6827372,13.7063736 L54.6158759,13.7063736 C54.3113869,13.7063736 54.1777007,13.5537363 54.0637226,13.323956 L51.8156934,8.58230769 C51.7585401,8.46791209 51.6636131,8.35285714 51.4537226,8.35285714 L50.2919343,8.35285714 Z" id="Fill-16"></path>
                <path d="M30.7678467,11.7243956 C30.7678467,11.8394505 30.8443796,11.9159341 30.9583577,11.9159341 L35.5306204,11.9159341 C35.7405109,11.9159341 35.9119708,12.088022 35.9119708,12.2983516 L35.9119708,13.3496703 C35.9119708,13.5603297 35.7405109,13.7320879 35.5306204,13.7320879 L29.3393431,13.7320879 C29.1301095,13.7320879 28.9583212,13.5603297 28.9583212,13.3496703 L28.9583212,0.730549451 C28.9583212,0.52021978 29.1301095,0.348131868 29.3393431,0.348131868 L35.4928467,0.348131868 C35.7020803,0.348131868 35.8738686,0.52021978 35.8738686,0.730549451 L35.8738686,1.7821978 C35.8738686,1.9921978 35.7020803,2.16428571 35.4928467,2.16428571 L30.9583577,2.16428571 C30.8443796,2.16428571 30.7678467,2.24076923 30.7678467,2.35549451 L30.7678467,5.79758242 C30.7678467,5.91230769 30.8443796,5.98879121 30.9583577,5.98879121 L35.2829562,5.98879121 C35.4928467,5.98879121 35.6643066,6.16054945 35.6643066,6.37087912 L35.6643066,7.42285714 C35.6643066,7.63285714 35.4928467,7.80527473 35.2829562,7.80527473 L30.9583577,7.80527473 C30.8443796,7.80527473 30.7678467,7.88142857 30.7678467,7.99648352 L30.7678467,11.7243956" id="Fill-17"></path>
                <path d="M22.1258759,7.41593407 C20.2582117,6.99494505 18.9436861,5.84802198 18.9436861,3.76384615 C18.9436861,1.46901099 20.9062774,0.169120879 22.8688686,0.169120879 C25.1165693,0.169120879 26.7736861,1.7943956 26.7736861,3.76384615 L26.7736861,4.01241758 C26.7736861,4.22274725 26.6025547,4.39516484 26.3926642,4.39516484 L25.3451825,4.39516484 C25.135292,4.39516484 24.9641606,4.22274725 24.9641606,4.01241758 L24.9641606,3.76384615 C24.9641606,2.48274725 23.840146,1.9856044 22.8688686,1.9856044 C21.6298905,1.9856044 20.7729197,2.67395604 20.7729197,3.76384615 C20.7729197,5.44648352 22.3919343,5.61824176 23.6302555,5.92417582 C25.8024088,6.45989011 27.154708,7.6832967 27.154708,9.8821978 C27.154708,12.3296703 25.0781387,13.8596703 22.8688686,13.8596703 C20.4109489,13.8596703 18.5820438,12.061978 18.5820438,9.8821978 L18.5820438,9.57626374 C18.5820438,9.36626374 18.7531752,9.19384615 18.9630657,9.19384615 L20.029927,9.19384615 C20.2398175,9.19384615 20.4109489,9.36626374 20.4109489,9.57626374 L20.4109489,9.8821978 C20.4109489,11.1253846 21.4400365,12.0431868 22.8688686,12.0431868 C24.2973723,12.0431868 25.3258029,11.1062637 25.3258029,9.8821978 C25.3258029,8.10428571 24.049708,7.85571429 22.1258759,7.41593407" id="Fill-18"></path>
                <path d="M11.0791971,5.71978022 C11.0791971,5.77318681 11.1143431,5.80912088 11.1685401,5.80912088 L13.3111314,5.80912088 C13.4093431,5.80912088 13.4894891,5.88956044 13.4894891,5.98813187 L13.4894891,6.48131868 C13.4894891,6.57989011 13.4093431,6.66032967 13.3111314,6.66032967 L10.4094526,6.66032967 C10.3112409,6.66032967 10.2310949,6.57989011 10.2310949,6.48131868 L10.2310949,0.567362637 C10.2310949,0.468791209 10.3112409,0.388021978 10.4094526,0.388021978 L13.2930657,0.388021978 C13.3912774,0.388021978 13.4714234,0.468791209 13.4714234,0.567362637 L13.4714234,1.06021978 C13.4714234,1.15846154 13.3912774,1.23923077 13.2930657,1.23923077 L11.1685401,1.23923077 C11.1143431,1.23923077 11.0791971,1.27483516 11.0791971,1.3289011 L11.0791971,2.94197802 C11.0791971,2.99538462 11.1143431,3.03131868 11.1685401,3.03131868 L13.194854,3.03131868 C13.2930657,3.03131868 13.3732117,3.11175824 13.3732117,3.21032967 L13.3732117,3.70318681 C13.3732117,3.80208791 13.2930657,3.88252747 13.194854,3.88252747 L11.1685401,3.88252747 C11.1143431,3.88252747 11.0791971,3.91846154 11.0791971,3.9721978 L11.0791971,5.71978022" id="Fill-19"></path>
                <path d="M14.9610219,5.71978022 C14.9610219,5.77318681 14.9971533,5.80912088 15.050365,5.80912088 L17.1929562,5.80912088 C17.2918248,5.80912088 17.3719708,5.88956044 17.3719708,5.98813187 L17.3719708,6.48131868 C17.3719708,6.57989011 17.2918248,6.66032967 17.1929562,6.66032967 L14.2919343,6.66032967 C14.1930657,6.66032967 14.1129197,6.57989011 14.1129197,6.48131868 L14.1129197,0.567362637 C14.1129197,0.468791209 14.1930657,0.388021978 14.2919343,0.388021978 L17.175219,0.388021978 C17.2737591,0.388021978 17.3542336,0.468791209 17.3542336,0.567362637 L17.3542336,1.06021978 C17.3542336,1.15846154 17.2737591,1.23923077 17.175219,1.23923077 L15.050365,1.23923077 C14.9971533,1.23923077 14.9610219,1.27483516 14.9610219,1.3289011 L14.9610219,2.94197802 C14.9610219,2.99538462 14.9971533,3.03131868 15.050365,3.03131868 L17.0770073,3.03131868 C17.175219,3.03131868 17.2560219,3.11175824 17.2560219,3.21032967 L17.2560219,3.70318681 C17.2560219,3.80208791 17.175219,3.88252747 17.0770073,3.88252747 L15.050365,3.88252747 C14.9971533,3.88252747 14.9610219,3.91846154 14.9610219,3.9721978 L14.9610219,5.71978022" id="Fill-20"></path>
                <path d="M11.0791971,12.7767033 C11.0791971,12.8301099 11.1143431,12.866044 11.1685401,12.866044 L13.3111314,12.866044 C13.4093431,12.866044 13.4894891,12.9464835 13.4894891,13.0450549 L13.4894891,13.5382418 C13.4894891,13.6368132 13.4093431,13.7172527 13.3111314,13.7172527 L10.4094526,13.7172527 C10.3112409,13.7172527 10.2310949,13.6368132 10.2310949,13.5382418 L10.2310949,7.62428571 C10.2310949,7.52571429 10.3112409,7.44494505 10.4094526,7.44494505 L13.2930657,7.44494505 C13.3912774,7.44494505 13.4714234,7.52571429 13.4714234,7.62428571 L13.4714234,8.11714286 C13.4714234,8.21538462 13.3912774,8.29615385 13.2930657,8.29615385 L11.1685401,8.29615385 C11.1143431,8.29615385 11.0791971,8.33175824 11.0791971,8.38582418 L11.0791971,9.9989011 C11.0791971,10.0523077 11.1143431,10.0885714 11.1685401,10.0885714 L13.194854,10.0885714 C13.2930657,10.0885714 13.3732117,10.169011 13.3732117,10.2675824 L13.3732117,10.7604396 C13.3732117,10.859011 13.2930657,10.9397802 13.194854,10.9397802 L11.1685401,10.9397802 C11.1143431,10.9397802 11.0791971,10.9753846 11.0791971,11.0291209 L11.0791971,12.7767033" id="Fill-21"></path>
                <path d="M14.9610219,12.7767033 C14.9610219,12.8301099 14.9971533,12.866044 15.050365,12.866044 L17.1929562,12.866044 C17.2918248,12.866044 17.3719708,12.9464835 17.3719708,13.0450549 L17.3719708,13.5382418 C17.3719708,13.6368132 17.2918248,13.7172527 17.1929562,13.7172527 L14.2919343,13.7172527 C14.1930657,13.7172527 14.1129197,13.6368132 14.1129197,13.5382418 L14.1129197,7.62428571 C14.1129197,7.52571429 14.1930657,7.44494505 14.2919343,7.44494505 L17.175219,7.44494505 C17.2737591,7.44494505 17.3542336,7.52571429 17.3542336,7.62428571 L17.3542336,8.11714286 C17.3542336,8.21538462 17.2737591,8.29615385 17.175219,8.29615385 L15.050365,8.29615385 C14.9971533,8.29615385 14.9610219,8.33175824 14.9610219,8.38582418 L14.9610219,9.9989011 C14.9610219,10.0523077 14.9971533,10.0885714 15.050365,10.0885714 L17.0770073,10.0885714 C17.175219,10.0885714 17.2560219,10.169011 17.2560219,10.2675824 L17.2560219,10.7604396 C17.2560219,10.859011 17.175219,10.9397802 17.0770073,10.9397802 L15.050365,10.9397802 C14.9971533,10.9397802 14.9610219,10.9753846 14.9610219,11.0291209 L14.9610219,12.7767033" id="Fill-22"></path>
                <path d="M75.0879197,0.371208791 L76.1357299,0.371208791 C76.345292,0.371208791 76.5167518,0.543626374 76.5167518,0.753956044 L76.5167518,13.3730769 C76.5167518,13.5837363 76.345292,13.7554945 76.1357299,13.7554945 L75.0879197,13.7554945 C74.8780292,13.7554945 74.7068978,13.5837363 74.7068978,13.3730769 L74.7068978,8.01989011 C74.7068978,7.90483516 74.630365,7.82868132 74.5163869,7.82868132 L70.325146,7.82868132 C70.2108394,7.82868132 70.134635,7.90483516 70.134635,8.01989011 L70.134635,13.3730769 C70.134635,13.5837363 69.9635036,13.7554945 69.7536131,13.7554945 L68.7061314,13.7554945 C68.4962409,13.7554945 68.3251095,13.5837363 68.3251095,13.3730769 L68.3251095,0.753956044 C68.3251095,0.543626374 68.4962409,0.371208791 68.7061314,0.371208791 L69.7536131,0.371208791 C69.9635036,0.371208791 70.134635,0.543626374 70.134635,0.753956044 L70.134635,5.82098901 C70.134635,5.93538462 70.2108394,6.0121978 70.325146,6.0121978 L74.5163869,6.0121978 C74.630365,6.0121978 74.7068978,5.93538462 74.7068978,5.82098901 L74.7068978,0.753956044 C74.7068978,0.543626374 74.8780292,0.371208791 75.0879197,0.371208791" id="Fill-23"></path>
                <path d="M66.2823723,9.93131868 C66.2823723,12.0534066 64.5109489,13.9084615 61.9962044,13.9084615 C59.7097445,13.9084615 58.014854,12.3979121 57.7093796,9.93131868 C57.5195255,8.38285714 57.5195255,5.72472527 57.7093796,4.19538462 C57.9577007,2.11120879 59.4814599,0.218241758 61.9962044,0.218241758 C64.2820073,0.218241758 66.2823723,1.70934066 66.2823723,4.19538462 L66.2823723,4.46274725 C66.2823723,4.67340659 66.1109124,4.84516484 65.9013504,4.84516484 L64.8535401,4.84516484 C64.644635,4.84516484 64.4725182,4.67340659 64.4725182,4.46274725 L64.4725182,4.19538462 C64.4725182,3.04813187 63.5012409,2.05384615 61.9962044,2.03472527 C60.7582117,2.03472527 59.6913504,2.79956044 59.5198905,4.19538462 C59.3293796,5.76296703 59.3293796,8.36340659 59.5198905,9.93131868 C59.6719708,11.0403297 60.5105474,12.0923077 61.9962044,12.0923077 C63.2729562,12.0923077 64.4725182,11.3271429 64.4725182,9.93131868 L64.4725182,9.66362637 C64.4725182,9.45362637 64.644635,9.28120879 64.8535401,9.28120879 L65.9013504,9.28120879 C66.1109124,9.28120879 66.2823723,9.45362637 66.2823723,9.66362637 L66.2823723,9.93131868" id="Fill-24"></path>
                <path d="M40.1932117,11.2734066 C40.2470803,11.2734066 40.2825547,11.247033 40.2648175,11.1748352 L39.6837591,8.67164835 C39.6748905,8.63538462 39.6660219,8.61758242 39.6479562,8.61758242 L39.6298905,8.61758242 C39.6124818,8.61758242 39.6029562,8.63538462 39.5940876,8.67164835 L39.0133577,11.1748352 C38.995292,11.247033 39.0310949,11.2734066 39.084635,11.2734066 L40.1932117,11.2734066 Z M40.5509124,12.2340659 C40.5328467,12.152967 40.4615693,12.1081319 40.3810949,12.1081319 L38.8970803,12.1081319 C38.8166058,12.1081319 38.7535401,12.152967 38.7269343,12.2340659 L38.3337591,13.6068132 C38.3068248,13.6875824 38.2444161,13.7416484 38.1639416,13.7416484 L37.6718978,13.7416484 C37.5290146,13.7416484 37.4758029,13.6424176 37.4932117,13.561978 L39.1562409,7.59494505 C39.1739781,7.51384615 39.2455839,7.46043956 39.3263869,7.46043956 L39.9517883,7.46043956 C40.0322628,7.46043956 40.1038686,7.51384615 40.1216058,7.59494505 L41.784635,13.561978 C41.8027007,13.6424176 41.7488321,13.7416484 41.6059489,13.7416484 L41.1142336,13.7416484 C41.0337591,13.7416484 40.9713504,13.6875824 40.9440876,13.6068132 L40.5509124,12.2340659 Z" id="Fill-25"></path>
                <path d="M45.0975547,11.2734066 C45.1520803,11.2734066 45.1875547,11.247033 45.170146,11.1748352 L44.5884307,8.67164835 C44.579562,8.63538462 44.570365,8.61758242 44.5526277,8.61758242 L44.534562,8.61758242 C44.5168248,8.61758242 44.5076277,8.63538462 44.4990876,8.67164835 L43.9177007,11.1748352 C43.899635,11.247033 43.9357664,11.2734066 43.9893066,11.2734066 L45.0975547,11.2734066 Z M45.4575547,12.2340659 C45.4394891,12.152967 45.3668978,12.1081319 45.2867518,12.1081319 L43.8017518,12.1081319 C43.7212774,12.1081319 43.6585401,12.152967 43.6319343,12.2340659 L43.2404015,13.6068132 C43.2134672,13.6875824 43.1507299,13.7416484 43.0702555,13.7416484 L42.5785401,13.7416484 C42.4353285,13.7416484 42.3821168,13.6424176 42.399854,13.561978 L44.0609124,7.59494505 C44.0786496,7.51384615 44.149927,7.46043956 44.2307299,7.46043956 L44.8564599,7.46043956 C44.9369343,7.46043956 45.0082117,7.51384615 45.0262774,7.59494505 L46.6916058,13.561978 C46.7096715,13.6424176 46.6558029,13.7416484 46.5125912,13.7416484 L46.0212044,13.7416484 C45.9410584,13.7416484 45.8783212,13.6875824 45.8513869,13.6068132 L45.4575547,12.2340659 Z" id="Fill-26"></path>
                <path d="M40.1932117,4.19901099 C40.2470803,4.19901099 40.2825547,4.17230769 40.2648175,4.10043956 L39.6837591,1.59659341 C39.6748905,1.56065934 39.6660219,1.54285714 39.6479562,1.54285714 L39.6298905,1.54285714 C39.6124818,1.54285714 39.6029562,1.56065934 39.5940876,1.59659341 L39.0133577,4.10043956 C38.995292,4.17230769 39.0310949,4.19901099 39.084635,4.19901099 L40.1932117,4.19901099 Z M40.5509124,5.15901099 C40.5328467,5.07791209 40.4615693,5.03373626 40.3810949,5.03373626 L38.8970803,5.03373626 C38.8166058,5.03373626 38.7535401,5.07791209 38.7269343,5.15901099 L38.3337591,6.53175824 C38.3068248,6.61318681 38.2444161,6.66659341 38.1639416,6.66659341 L37.6718978,6.66659341 C37.5290146,6.66659341 37.4758029,6.56802198 37.4932117,6.48692308 L39.1562409,0.52021978 C39.1739781,0.439120879 39.2455839,0.385384615 39.3263869,0.385384615 L39.9517883,0.385384615 C40.0322628,0.385384615 40.1038686,0.439120879 40.1216058,0.52021978 L41.784635,6.48692308 C41.8027007,6.56802198 41.7488321,6.66659341 41.6059489,6.66659341 L41.1142336,6.66659341 C41.0337591,6.66659341 40.9713504,6.61318681 40.9440876,6.53175824 L40.5509124,5.15901099 Z" id="Fill-27"></path>
                <path d="M45.0975547,4.19901099 C45.1520803,4.19901099 45.1875547,4.17230769 45.170146,4.10043956 L44.5884307,1.59659341 C44.579562,1.56065934 44.570365,1.54285714 44.5526277,1.54285714 L44.534562,1.54285714 C44.5168248,1.54285714 44.5076277,1.56065934 44.4990876,1.59659341 L43.9177007,4.10043956 C43.899635,4.17230769 43.9357664,4.19901099 43.9893066,4.19901099 L45.0975547,4.19901099 Z M45.4575547,5.15901099 C45.4394891,5.07791209 45.3668978,5.03373626 45.2867518,5.03373626 L43.8017518,5.03373626 C43.7212774,5.03373626 43.6585401,5.07791209 43.6319343,5.15901099 L43.2404015,6.53175824 C43.2134672,6.61318681 43.1507299,6.66659341 43.0702555,6.66659341 L42.5785401,6.66659341 C42.4353285,6.66659341 42.3821168,6.56802198 42.399854,6.48692308 L44.0609124,0.52021978 C44.0786496,0.439120879 44.149927,0.385384615 44.2307299,0.385384615 L44.8564599,0.385384615 C44.9369343,0.385384615 45.0082117,0.439120879 45.0262774,0.52021978 L46.6916058,6.48692308 C46.7096715,6.56802198 46.6558029,6.66659341 46.5125912,6.66659341 L46.0212044,6.66659341 C45.9410584,6.66659341 45.8783212,6.61318681 45.8513869,6.53175824 L45.4575547,5.15901099 Z" id="Fill-28"></path>
                <path d="M8.90540146,25.2082418 C8.90540146,27.3306593 7.13364964,29.1857143 4.61890511,29.1857143 C2.33277372,29.1857143 0.637554745,27.6751648 0.332408759,25.2082418 C0.142226277,23.6548352 0.142226277,20.997033 0.332408759,19.4676923 C0.58040146,17.3835165 2.10416058,15.4905495 4.61890511,15.4905495 C6.9050365,15.4905495 8.90540146,16.981978 8.90540146,19.4676923 L8.90540146,19.7350549 C8.90540146,19.9457143 8.73361314,20.1174725 8.52437956,20.1174725 L7.47624088,20.1174725 C7.26733577,20.1174725 7.09554745,19.9457143 7.09554745,19.7350549 L7.09554745,19.4676923 C7.09554745,18.3204396 6.12394161,17.3264835 4.61890511,17.307033 C3.38091241,17.307033 2.31372263,18.0718681 2.14259124,19.4676923 C1.95208029,21.0356044 1.95208029,23.6353846 2.14259124,25.2082418 C2.29467153,26.3179121 3.13324818,27.3692308 4.61890511,27.3692308 C5.89565693,27.3692308 7.09554745,26.6043956 7.09554745,25.2082418 L7.09554745,24.9412088 C7.09554745,24.7305495 7.26733577,24.5584615 7.47624088,24.5584615 L8.52437956,24.5584615 C8.73361314,24.5584615 8.90540146,24.7305495 8.90540146,24.9412088 L8.90540146,25.2082418" id="Fill-29"></path>
                <path d="M12.7277737,27.0247253 C12.7277737,27.1401099 12.8039781,27.2159341 12.9182847,27.2159341 L17.4905474,27.2159341 C17.7001095,27.2159341 17.8715693,27.3886813 17.8715693,27.5983516 L17.8715693,28.65 C17.8715693,28.8603297 17.7001095,29.0324176 17.4905474,29.0324176 L11.2989416,29.0324176 C11.0893796,29.0324176 10.9179197,28.8603297 10.9179197,28.65 L10.9179197,16.0262637 C10.9179197,15.8159341 11.0893796,15.6438462 11.2989416,15.6438462 L17.4524453,15.6438462 C17.6616788,15.6438462 17.8334672,15.8159341 17.8334672,16.0262637 L17.8334672,17.0779121 C17.8334672,17.2879121 17.6616788,17.46 17.4524453,17.46 L12.9182847,17.46 C12.8039781,17.46 12.7277737,17.5364835 12.7277737,17.6512088 L12.7277737,21.0932967 C12.7277737,21.208022 12.8039781,21.2845055 12.9182847,21.2845055 L17.2428832,21.2845055 C17.4524453,21.2845055 17.6239051,21.4562637 17.6239051,21.6665934 L17.6239051,22.7182418 C17.6239051,22.9289011 17.4524453,23.1006593 17.2428832,23.1006593 L12.9182847,23.1006593 C12.8039781,23.1006593 12.7277737,23.1771429 12.7277737,23.2918681 L12.7277737,27.0247253" id="Fill-30"></path>
                <path d="M34.2683212,17.6512088 L34.2683212,28.65 C34.2683212,28.8603297 34.0968613,29.0324176 33.8869708,29.0324176 L32.8394891,29.0324176 C32.6295985,29.0324176 32.4584672,28.8603297 32.4584672,28.65 L32.4584672,17.6512088 C32.4584672,17.5364835 32.3819343,17.46 32.2679562,17.46 L29.7338321,17.46 C29.5245985,17.46 29.3534672,17.2879121 29.3534672,17.0779121 L29.3534672,16.0262637 C29.3534672,15.8159341 29.5245985,15.6438462 29.7338321,15.6438462 L36.9735766,15.6438462 C37.1828102,15.6438462 37.3545985,15.8159341 37.3545985,16.0262637 L37.3545985,17.0779121 C37.3545985,17.2879121 37.1828102,17.46 36.9735766,17.46 L34.4588321,17.46 C34.3445255,17.46 34.2683212,17.5364835 34.2683212,17.6512088" id="Fill-31"></path>
                <path d="M25.7725182,29.0324176 C25.5629562,29.0324176 25.4680292,28.9750549 25.3724453,28.7076923 L21.6193796,19.2382418 C21.5816058,19.1617582 21.4672993,19.1808791 21.4672993,19.2768132 L21.4672993,28.65 C21.4672993,28.8603297 21.2961679,29.0324176 21.0862774,29.0324176 L20.1143431,29.0324176 C19.9051095,29.0324176 19.7339781,28.8603297 19.7339781,28.65 L19.7339781,16.0262637 C19.7339781,15.8159341 19.9051095,15.6438462 20.1143431,15.6438462 L21.6955839,15.6438462 C21.9054745,15.6438462 22.0004015,15.7008791 22.0959854,15.9685714 L25.8490511,25.3994505 C25.8868248,25.4762637 26.0011314,25.4568132 26.0011314,25.3615385 L26.0011314,16.0262637 C26.0011314,15.8159341 26.1729197,15.6438462 26.3821533,15.6438462 L27.3540876,15.6438462 C27.5633212,15.6438462 27.7351095,15.8159341 27.7351095,16.0262637 L27.7351095,28.65 C27.7351095,28.8603297 27.5633212,29.0324176 27.3540876,29.0324176 L25.7725182,29.0324176" id="Fill-32"></path>
                <path d="M58.9532847,57.717033 C58.9532847,57.8320879 59.0298175,57.9082418 59.1441241,57.9082418 L63.7160584,57.9082418 C63.9259489,57.9082418 64.0974088,58.0806593 64.0974088,58.2906593 L64.0974088,59.341978 C64.0974088,59.5526374 63.9259489,59.7243956 63.7160584,59.7243956 L57.524781,59.7243956 C57.3155474,59.7243956 57.1437591,59.5526374 57.1437591,59.341978 L57.1437591,46.7231868 C57.1437591,46.5125275 57.3155474,46.3407692 57.524781,46.3407692 L63.6782847,46.3407692 C63.8875182,46.3407692 64.0593066,46.5125275 64.0593066,46.7231868 L64.0593066,47.7745055 C64.0593066,47.9845055 63.8875182,48.1572527 63.6782847,48.1572527 L59.1441241,48.1572527 C59.0298175,48.1572527 58.9532847,48.2330769 58.9532847,48.3484615 L58.9532847,51.7898901 C58.9532847,51.9046154 59.0298175,51.9810989 59.1441241,51.9810989 L63.4687226,51.9810989 C63.6782847,51.9810989 63.8497445,52.1531868 63.8497445,52.3635165 L63.8497445,53.4151648 C63.8497445,53.6254945 63.6782847,53.7975824 63.4687226,53.7975824 L59.1441241,53.7975824 C59.0298175,53.7975824 58.9532847,53.8740659 58.9532847,53.9887912 L58.9532847,57.717033" id="Fill-33"></path>
                <path d="M23.1467518,57.717033 C23.1467518,57.8320879 23.2232847,57.9082418 23.3372628,57.9082418 L27.6050365,57.9082418 C27.8139416,57.9082418 27.9860584,58.0806593 27.9860584,58.2906593 L27.9860584,59.341978 C27.9860584,59.5526374 27.8139416,59.7243956 27.6050365,59.7243956 L21.7182482,59.7243956 C21.5083577,59.7243956 21.3372263,59.5526374 21.3372263,59.341978 L21.3372263,46.7231868 C21.3372263,46.5125275 21.5083577,46.3407692 21.7182482,46.3407692 L22.7657299,46.3407692 C22.9756204,46.3407692 23.1467518,46.5125275 23.1467518,46.7231868 L23.1467518,57.717033" id="Fill-34"></path>
                <path d="M8.92708029,55.9598901 C8.92708029,58.081978 7.15565693,59.937033 4.64058394,59.937033 C2.35478102,59.937033 0.659233577,58.4264835 0.354416058,55.9598901 C0.164233577,54.4110989 0.164233577,51.7532967 0.354416058,50.223956 C0.602408759,48.1397802 2.12583942,46.2468132 4.64058394,46.2468132 C6.92671533,46.2468132 8.92708029,47.7379121 8.92708029,50.223956 L8.92708029,50.4913187 C8.92708029,50.7016484 8.75562044,50.8737363 8.54605839,50.8737363 L7.49824818,50.8737363 C7.2890146,50.8737363 7.11755474,50.7016484 7.11755474,50.4913187 L7.11755474,50.223956 C7.11755474,49.0767033 6.14562044,48.0824176 4.64058394,48.062967 C3.40259124,48.062967 2.33572993,48.8281319 2.16427007,50.223956 C1.97375912,51.7918681 1.97375912,54.391978 2.16427007,55.9598901 C2.31635036,57.0692308 3.15492701,58.1205495 4.64058394,58.1205495 C5.91733577,58.1205495 7.11755474,57.3557143 7.11755474,55.9598901 L7.11755474,55.6925275 C7.11755474,55.4818681 7.2890146,55.3101099 7.49824818,55.3101099 L8.54605839,55.3101099 C8.75562044,55.3101099 8.92708029,55.4818681 8.92708029,55.6925275 L8.92708029,55.9598901" id="Fill-35"></path>
                <path d="M45.4174818,55.8830769 C45.4174818,58.1779121 43.4351825,59.8605495 41.1306569,59.8605495 C38.6730657,59.8605495 36.8438321,58.1779121 36.8438321,55.8830769 L36.8438321,46.7057143 C36.8438321,46.4953846 37.0159489,46.3232967 37.2251825,46.3232967 L38.2733212,46.3232967 C38.4825547,46.3232967 38.6536861,46.4953846 38.6536861,46.7057143 L38.6536861,55.8830769 C38.6536861,57.4130769 39.8926642,58.0440659 41.1306569,58.0440659 C42.5785401,58.0440659 43.6056569,57.1071429 43.6056569,55.8830769 L43.6056569,46.7057143 C43.6056569,46.4953846 43.7771168,46.3232967 43.9863504,46.3232967 L45.0341606,46.3232967 C45.2450365,46.3232967 45.4174818,46.4953846 45.4174818,46.7057143 L45.4174818,55.8830769" id="Fill-36"></path>
                <path d="M48.100073,47.2028571 C48.0465328,47.2028571 48.0113869,47.2387912 48.0113869,47.2918681 L48.0113869,49.1571429 C48.0113869,49.2098901 48.0465328,49.2451648 48.100073,49.2451648 L48.940292,49.2451648 C49.4977007,49.2451648 49.9578832,48.7836264 49.9578832,48.2241758 C49.9578832,47.6650549 49.4977007,47.2028571 48.940292,47.2028571 L48.100073,47.2028571 Z M48.100073,50.0894505 C48.0465328,50.0894505 48.0113869,50.1247253 48.0113869,50.1781319 L48.0113869,52.3978022 C48.0113869,52.4957143 47.9318978,52.5754945 47.8343431,52.5754945 L47.3472263,52.5754945 C47.2506569,52.5754945 47.1708394,52.4957143 47.1708394,52.3978022 L47.1708394,46.5372527 C47.1708394,46.4393407 47.2506569,46.3592308 47.3472263,46.3592308 L48.940292,46.3592308 C49.9667518,46.3592308 50.7981022,47.1946154 50.7981022,48.2241758 C50.7981022,48.8996703 50.4177372,49.4943956 49.8783942,49.8138462 C49.710219,49.9117582 49.6478102,49.9915385 49.7276277,50.1510989 L50.7718248,52.3087912 C50.8335766,52.4423077 50.780365,52.5754945 50.6039781,52.5754945 L50.1079927,52.5754945 C49.9667518,52.5754945 49.9046715,52.5046154 49.8514599,52.3978022 L48.8075912,50.1956044 C48.7813139,50.1421978 48.7369708,50.0894505 48.6394161,50.0894505 L48.100073,50.0894505 Z" id="Fill-37"></path>
                <path d="M52.6434307,47.2028571 C52.5905474,47.2028571 52.5547445,47.2387912 52.5547445,47.2918681 L52.5547445,49.1571429 C52.5547445,49.2098901 52.5905474,49.2451648 52.6434307,49.2451648 L53.4843066,49.2451648 C54.0410584,49.2451648 54.5018978,48.7836264 54.5018978,48.2241758 C54.5018978,47.6650549 54.0410584,47.2028571 53.4843066,47.2028571 L52.6434307,47.2028571 Z M52.6434307,50.0894505 C52.5905474,50.0894505 52.5547445,50.1247253 52.5547445,50.1781319 L52.5547445,52.3978022 C52.5547445,52.4957143 52.4752555,52.5754945 52.3783577,52.5754945 L51.8912409,52.5754945 C51.7940146,52.5754945 51.7141971,52.4957143 51.7141971,52.3978022 L51.7141971,46.5372527 C51.7141971,46.4393407 51.7940146,46.3592308 51.8912409,46.3592308 L53.4843066,46.3592308 C54.5101095,46.3592308 55.3421168,47.1946154 55.3421168,48.2241758 C55.3421168,48.8996703 54.9617518,49.4943956 54.4217518,49.8138462 C54.2535766,49.9117582 54.1918248,49.9915385 54.2716423,50.1510989 L55.3151825,52.3087912 C55.3775912,52.4423077 55.3243796,52.5754945 55.1473358,52.5754945 L54.6520073,52.5754945 C54.5101095,52.5754945 54.4486861,52.5046154 54.3954745,52.3978022 L53.3516058,50.1956044 C53.3246715,50.1421978 53.2803285,50.0894505 53.1834307,50.0894505 L52.6434307,50.0894505 Z" id="Fill-38"></path>
                <path d="M48.100073,54.333956 C48.0465328,54.333956 48.0113869,54.3698901 48.0113869,54.4226374 L48.0113869,56.2882418 C48.0113869,56.340989 48.0465328,56.3762637 48.100073,56.3762637 L48.940292,56.3762637 C49.4977007,56.3762637 49.9578832,55.9147253 49.9578832,55.3552747 C49.9578832,54.7961538 49.4977007,54.333956 48.940292,54.333956 L48.100073,54.333956 Z M48.100073,57.2205495 C48.0465328,57.2205495 48.0113869,57.2558242 48.0113869,57.3092308 L48.0113869,59.5289011 C48.0113869,59.6268132 47.9318978,59.7065934 47.8343431,59.7065934 L47.3472263,59.7065934 C47.2506569,59.7065934 47.1708394,59.6268132 47.1708394,59.5289011 L47.1708394,53.668022 C47.1708394,53.5704396 47.2506569,53.4903297 47.3472263,53.4903297 L48.940292,53.4903297 C49.9667518,53.4903297 50.7981022,54.3257143 50.7981022,55.3552747 C50.7981022,56.0304396 50.4177372,56.6254945 49.8783942,56.9449451 C49.710219,57.0428571 49.6478102,57.1226374 49.7276277,57.2821978 L50.7718248,59.4398901 C50.8335766,59.5734066 50.780365,59.7065934 50.6039781,59.7065934 L50.1079927,59.7065934 C49.9667518,59.7065934 49.9046715,59.6357143 49.8514599,59.5289011 L48.8075912,57.3267033 C48.7813139,57.2732967 48.7369708,57.2205495 48.6394161,57.2205495 L48.100073,57.2205495 Z" id="Fill-39"></path>
                <path d="M52.6434307,54.333956 C52.5905474,54.333956 52.5547445,54.3698901 52.5547445,54.4226374 L52.5547445,56.2882418 C52.5547445,56.340989 52.5905474,56.3762637 52.6434307,56.3762637 L53.4843066,56.3762637 C54.0410584,56.3762637 54.5018978,55.9147253 54.5018978,55.3552747 C54.5018978,54.7961538 54.0410584,54.333956 53.4843066,54.333956 L52.6434307,54.333956 Z M52.6434307,57.2205495 C52.5905474,57.2205495 52.5547445,57.2558242 52.5547445,57.3092308 L52.5547445,59.5289011 C52.5547445,59.6268132 52.4752555,59.7065934 52.3783577,59.7065934 L51.8912409,59.7065934 C51.7940146,59.7065934 51.7141971,59.6268132 51.7141971,59.5289011 L51.7141971,53.668022 C51.7141971,53.5704396 51.7940146,53.4903297 51.8912409,53.4903297 L53.4843066,53.4903297 C54.5101095,53.4903297 55.3421168,54.3257143 55.3421168,55.3552747 C55.3421168,56.0304396 54.9617518,56.6254945 54.4217518,56.9449451 C54.2535766,57.0428571 54.1918248,57.1226374 54.2716423,57.2821978 L55.3151825,59.4398901 C55.3775912,59.5734066 55.3243796,59.7065934 55.1473358,59.7065934 L54.6520073,59.7065934 C54.5101095,59.7065934 54.4486861,59.6357143 54.3954745,59.5289011 L53.3516058,57.3267033 C53.3246715,57.2732967 53.2803285,57.2205495 53.1834307,57.2205495 L52.6434307,57.2205495 Z" id="Fill-40"></path>
                <path d="M32.2761679,48.3484615 L32.2761679,59.3426374 C32.2761679,59.5532967 32.1050365,59.7250549 31.895146,59.7250549 L30.8476642,59.7250549 C30.6377737,59.7250549 30.4663139,59.5532967 30.4663139,59.3426374 L30.4663139,48.3484615 C30.4663139,48.2337363 30.3901095,48.1572527 30.2758029,48.1572527 L27.7420073,48.1572527 C27.5327737,48.1572527 27.3613139,47.9851648 27.3613139,47.7751648 L27.3613139,46.7231868 C27.3613139,46.5131868 27.5327737,46.3407692 27.7420073,46.3407692 L34.9817518,46.3407692 C35.1906569,46.3407692 35.3627737,46.5131868 35.3627737,46.7231868 L35.3627737,47.7751648 C35.3627737,47.9851648 35.1906569,48.1572527 34.9817518,48.1572527 L32.4666788,48.1572527 C32.3527007,48.1572527 32.2761679,48.2337363 32.2761679,48.3484615" id="Fill-41"></path>
                <path d="M14.6276277,50.8203297 C14.6276277,51.8967033 13.6977372,52.6862637 12.6164234,52.6862637 C11.4631752,52.6862637 10.605219,51.8967033 10.605219,50.8203297 L10.605219,46.5145055 C10.605219,46.4152747 10.6856934,46.3348352 10.7842336,46.3348352 L11.2756204,46.3348352 C11.3738321,46.3348352 11.4543066,46.4152747 11.4543066,46.5145055 L11.4543066,50.8203297 C11.4543066,51.538022 12.035365,51.8343956 12.6164234,51.8343956 C13.2956934,51.8343956 13.7782117,51.3946154 13.7782117,50.8203297 L13.7782117,46.5145055 C13.7782117,46.4152747 13.8586861,46.3348352 13.9568978,46.3348352 L14.4486131,46.3348352 C14.5468248,46.3348352 14.6276277,46.4152747 14.6276277,46.5145055 L14.6276277,50.8203297" id="Fill-42"></path>
                <path d="M19.509635,50.8203297 C19.509635,51.8967033 18.580073,52.6862637 17.4984307,52.6862637 C16.3455109,52.6862637 15.4875547,51.8967033 15.4875547,50.8203297 L15.4875547,46.5145055 C15.4875547,46.4152747 15.5680292,46.3348352 15.6662409,46.3348352 L16.1576277,46.3348352 C16.2561679,46.3348352 16.3363139,46.4152747 16.3363139,46.5145055 L16.3363139,50.8203297 C16.3363139,51.538022 16.9173723,51.8343956 17.4984307,51.8343956 C18.1777007,51.8343956 18.6605474,51.3946154 18.6605474,50.8203297 L18.6605474,46.5145055 C18.6605474,46.4152747 18.7410219,46.3348352 18.8392336,46.3348352 L19.3309489,46.3348352 C19.4291606,46.3348352 19.509635,46.4152747 19.509635,46.5145055 L19.509635,50.8203297" id="Fill-43"></path>
                <path d="M14.6276277,57.8894505 C14.6276277,58.9654945 13.6977372,59.7547253 12.6164234,59.7547253 C11.4631752,59.7547253 10.605219,58.9654945 10.605219,57.8894505 L10.605219,53.5832967 C10.605219,53.4847253 10.6856934,53.4042857 10.7842336,53.4042857 L11.2756204,53.4042857 C11.3738321,53.4042857 11.4543066,53.4847253 11.4543066,53.5832967 L11.4543066,57.8894505 C11.4543066,58.6068132 12.035365,58.9028571 12.6164234,58.9028571 C13.2956934,58.9028571 13.7782117,58.4630769 13.7782117,57.8894505 L13.7782117,53.5832967 C13.7782117,53.4847253 13.8586861,53.4042857 13.9568978,53.4042857 L14.4486131,53.4042857 C14.5468248,53.4042857 14.6276277,53.4847253 14.6276277,53.5832967 L14.6276277,57.8894505" id="Fill-44"></path>
                <path d="M19.509635,57.8894505 C19.509635,58.9654945 18.580073,59.7547253 17.4984307,59.7547253 C16.3455109,59.7547253 15.4875547,58.9654945 15.4875547,57.8894505 L15.4875547,53.5832967 C15.4875547,53.4847253 15.5680292,53.4042857 15.6662409,53.4042857 L16.1576277,53.4042857 C16.2561679,53.4042857 16.3363139,53.4847253 16.3363139,53.5832967 L16.3363139,57.8894505 C16.3363139,58.6068132 16.9173723,58.9028571 17.4984307,58.9028571 C18.1777007,58.9028571 18.6605474,58.4630769 18.6605474,57.8894505 L18.6605474,53.5832967 C18.6605474,53.4847253 18.7410219,53.4042857 18.8392336,53.4042857 L19.3309489,53.4042857 C19.4291606,53.4042857 19.509635,53.4847253 19.509635,53.5832967 L19.509635,57.8894505" id="Fill-45"></path>
                <path d="M78.0917518,25.231978 C78.3226642,23.6538462 78.3039416,21.0395604 78.0917518,19.4637363 C77.9383577,18.3283516 77.114562,17.2912088 75.6029562,17.2912088 C74.3577372,17.2912088 73.2859489,18.0596703 73.1112044,19.4637363 C72.9213504,21.0395604 72.9213504,23.6538462 73.1112044,25.231978 C73.2652555,26.3469231 74.1090876,27.4038462 75.6029562,27.4038462 C76.8862774,27.4038462 77.9015693,26.6156044 78.0917518,25.231978 Z M79.9131022,19.4637363 C80.1042701,21 80.0848905,23.6924176 79.9131022,25.231978 C79.6825182,27.3461538 78.1314964,29.2298901 75.6029562,29.2298901 C73.3056569,29.2298901 71.599927,27.7124176 71.2937956,25.231978 C71.1006569,23.672967 71.1006569,21 71.2937956,19.4637363 C71.5434307,17.3676923 73.0734307,15.4648352 75.6029562,15.4648352 C77.9015693,15.4648352 79.605,16.9842857 79.9131022,19.4637363 Z" id="Fill-46"></path>
                <path d="M64.7195255,23.3156044 L64.7195255,28.6984615 C64.7195255,28.9114286 64.5464234,29.0828571 64.3355474,29.0828571 L63.2821533,29.0828571 C63.0712774,29.0828571 62.8991606,28.9114286 62.8991606,28.6984615 L62.8991606,16.0101099 C62.8991606,15.7987912 63.0712774,15.626044 63.2821533,15.626044 L69.4694891,15.626044 C69.6783942,15.626044 69.8531387,15.7987912 69.8531387,16.0101099 L69.8531387,17.0683516 C69.8531387,17.2796703 69.6783942,17.4520879 69.4694891,17.4520879 L64.9126642,17.4520879 C64.7957299,17.4520879 64.7195255,17.5285714 64.7195255,17.643956 L64.7195255,21.1045055 C64.7195255,21.2202198 64.7957299,21.297033 64.9126642,21.297033 L69.2576277,21.297033 C69.4694891,21.297033 69.6412774,21.4697802 69.6412774,21.6810989 L69.6412774,22.7386813 C69.6412774,22.950989 69.4694891,23.1230769 69.2576277,23.1230769 L64.9126642,23.1230769 C64.7957299,23.1230769 64.7195255,23.1995604 64.7195255,23.3156044" id="Fill-47"></path>
                <path d="M84.0258394,17.4517582 C83.9085766,17.4517582 83.8333577,17.5279121 83.8333577,17.643956 L83.8333577,21.6810989 C83.8333577,21.7961538 83.9085766,21.8723077 84.0258394,21.8723077 L85.8439051,21.8723077 C87.0500365,21.8723077 88.0482482,20.8724176 88.0482482,19.6628571 C88.0482482,18.450989 87.0500365,17.4517582 85.8439051,17.4517582 L84.0258394,17.4517582 Z M84.0258394,23.7003297 C83.9085766,23.7003297 83.8333577,23.7761538 83.8333577,23.8908791 L83.8333577,28.6991209 C83.8333577,28.9120879 83.6595985,29.0835165 83.4516788,29.0835165 L82.3963139,29.0835165 C82.1841241,29.0835165 82.0133212,28.9120879 82.0133212,28.6991209 L82.0133212,16.0094505 C82.0133212,15.7987912 82.1841241,15.6250549 82.3963139,15.6250549 L85.8439051,15.6250549 C88.0656569,15.6250549 89.8656569,17.4326374 89.8656569,19.6628571 C89.8656569,21.1232967 89.0425182,22.4106593 87.875146,23.103956 C87.5098905,23.3156044 87.3758759,23.488022 87.5486496,23.8345055 L89.8098175,28.5079121 C89.9428467,28.7957143 89.8278832,29.0835165 89.4455474,29.0835165 L88.3734307,29.0835165 C88.0656569,29.0835165 87.9316423,28.9305495 87.8173358,28.6991209 L85.5564964,23.9297802 C85.4986861,23.8147253 85.405073,23.7003297 85.1935401,23.7003297 L84.0258394,23.7003297 Z" id="Fill-48"></path>
                <path d="M49.6540511,17.4517582 C49.5367883,17.4517582 49.4628832,17.5279121 49.4628832,17.643956 L49.4628832,21.6810989 C49.4628832,21.7961538 49.5367883,21.8723077 49.6540511,21.8723077 L51.4711314,21.8723077 C52.6785766,21.8723077 53.6767883,20.8724176 53.6767883,19.6628571 C53.6767883,18.450989 52.6785766,17.4517582 51.4711314,17.4517582 L49.6540511,17.4517582 Z M49.6540511,23.7003297 C49.5367883,23.7003297 49.4628832,23.7761538 49.4628832,23.8908791 L49.4628832,28.6991209 C49.4628832,28.9120879 49.289781,29.0835165 49.0798905,29.0835165 L48.0255109,29.0835165 C47.8133212,29.0835165 47.6412044,28.9120879 47.6412044,28.6991209 L47.6412044,16.0094505 C47.6412044,15.7987912 47.8133212,15.6250549 48.0255109,15.6250549 L51.4711314,15.6250549 C53.694854,15.6250549 55.494854,17.4326374 55.494854,19.6628571 C55.494854,21.1232967 54.6707299,22.4106593 53.5027007,23.103956 C53.1384307,23.3156044 53.0034307,23.488022 53.1785036,23.8345055 L55.4380292,28.5079121 C55.5710584,28.7957143 55.4570803,29.0835165 55.0740876,29.0835165 L54.0016423,29.0835165 C53.694854,29.0835165 53.5608394,28.9305495 53.4455474,28.6991209 L51.1850365,23.9297802 C51.1268978,23.8147253 51.0319708,23.7003297 50.8210949,23.7003297 L49.6540511,23.7003297 Z" id="Fill-49"></path>
                <path d="M39.8276277,21.0062637 C39.8276277,21.0613187 39.8624453,21.0969231 39.9153285,21.0969231 L42.0671168,21.0969231 C42.1682847,21.0969231 42.2487591,21.178022 42.2487591,21.2772527 L42.2487591,21.7730769 C42.2487591,21.870989 42.1682847,21.9517582 42.0671168,21.9517582 L39.1542701,21.9517582 C39.055073,21.9517582 38.9759124,21.870989 38.9759124,21.7730769 L38.9759124,15.8334066 C38.9759124,15.7345055 39.055073,15.6530769 39.1542701,15.6530769 L42.0510219,15.6530769 C42.1492336,15.6530769 42.2293796,15.7345055 42.2293796,15.8334066 L42.2293796,16.3292308 C42.2293796,16.4274725 42.1492336,16.5079121 42.0510219,16.5079121 L39.9153285,16.5079121 C39.8624453,16.5079121 39.8276277,16.5441758 39.8276277,16.5992308 L39.8276277,18.2175824 C39.8276277,18.271978 39.8624453,18.3082418 39.9153285,18.3082418 L41.9518248,18.3082418 C42.0510219,18.3082418 42.1305109,18.3886813 42.1305109,18.4875824 L42.1305109,18.9827473 C42.1305109,19.0823077 42.0510219,19.1634066 41.9518248,19.1634066 L39.9153285,19.1634066 C39.8624453,19.1634066 39.8276277,19.1986813 39.8276277,19.2517582 L39.8276277,21.0062637" id="Fill-50"></path>
                <path d="M43.7239051,21.0062637 C43.7239051,21.0613187 43.7590511,21.0969231 43.8139051,21.0969231 L45.965365,21.0969231 C46.0635766,21.0969231 46.1460219,21.178022 46.1460219,21.2772527 L46.1460219,21.7730769 C46.1460219,21.870989 46.0635766,21.9517582 45.965365,21.9517582 L43.0525182,21.9517582 C42.9523358,21.9517582 42.8721898,21.870989 42.8721898,21.7730769 L42.8721898,15.8334066 C42.8721898,15.7345055 42.9523358,15.6530769 43.0525182,15.6530769 L45.9486131,15.6530769 C46.0471533,15.6530769 46.1282847,15.7345055 46.1282847,15.8334066 L46.1282847,16.3292308 C46.1282847,16.4274725 46.0471533,16.5079121 45.9486131,16.5079121 L43.8139051,16.5079121 C43.7590511,16.5079121 43.7239051,16.5441758 43.7239051,16.5992308 L43.7239051,18.2175824 C43.7239051,18.271978 43.7590511,18.3082418 43.8139051,18.3082418 L45.8484307,18.3082418 C45.9486131,18.3082418 46.0267883,18.3886813 46.0267883,18.4875824 L46.0267883,18.9827473 C46.0267883,19.0823077 45.9486131,19.1634066 45.8484307,19.1634066 L43.8139051,19.1634066 C43.7590511,19.1634066 43.7239051,19.1986813 43.7239051,19.2517582 L43.7239051,21.0062637" id="Fill-51"></path>
                <path d="M39.8276277,28.0961538 C39.8276277,28.1502198 39.8624453,28.1864835 39.9153285,28.1864835 L42.0671168,28.1864835 C42.1682847,28.1864835 42.2487591,28.2669231 42.2487591,28.3651648 L42.2487591,28.860989 C42.2487591,28.9598901 42.1682847,29.0416484 42.0671168,29.0416484 L39.1542701,29.0416484 C39.055073,29.0416484 38.9759124,28.9598901 38.9759124,28.860989 L38.9759124,22.9203297 C38.9759124,22.8214286 39.055073,22.7403297 39.1542701,22.7403297 L42.0510219,22.7403297 C42.1492336,22.7403297 42.2293796,22.8214286 42.2293796,22.9203297 L42.2293796,23.4154945 C42.2293796,23.5140659 42.1492336,23.5945055 42.0510219,23.5945055 L39.9153285,23.5945055 C39.8624453,23.5945055 39.8276277,23.6310989 39.8276277,23.6861538 L39.8276277,25.3074725 C39.8276277,25.3598901 39.8624453,25.3971429 39.9153285,25.3971429 L41.9518248,25.3971429 C42.0510219,25.3971429 42.1305109,25.4769231 42.1305109,25.5761538 L42.1305109,26.0713187 C42.1305109,26.1712088 42.0510219,26.2506593 41.9518248,26.2506593 L39.9153285,26.2506593 C39.8624453,26.2506593 39.8276277,26.2869231 39.8276277,26.341978 L39.8276277,28.0961538" id="Fill-52"></path>
                <path d="M43.7239051,28.0961538 C43.7239051,28.1502198 43.7590511,28.1864835 43.8139051,28.1864835 L45.965365,28.1864835 C46.0635766,28.1864835 46.1460219,28.2669231 46.1460219,28.3651648 L46.1460219,28.860989 C46.1460219,28.9598901 46.0635766,29.0416484 45.965365,29.0416484 L43.0525182,29.0416484 C42.9523358,29.0416484 42.8721898,28.9598901 42.8721898,28.860989 L42.8721898,22.9203297 C42.8721898,22.8214286 42.9523358,22.7403297 43.0525182,22.7403297 L45.9486131,22.7403297 C46.0471533,22.7403297 46.1282847,22.8214286 46.1282847,22.9203297 L46.1282847,23.4154945 C46.1282847,23.5140659 46.0471533,23.5945055 45.9486131,23.5945055 L43.8139051,23.5945055 C43.7590511,23.5945055 43.7239051,23.6310989 43.7239051,23.6861538 L43.7239051,25.3074725 C43.7239051,25.3598901 43.7590511,25.3971429 43.8139051,25.3971429 L45.8484307,25.3971429 C45.9486131,25.3971429 46.0267883,25.4769231 46.0267883,25.5761538 L46.0267883,26.0713187 C46.0267883,26.1712088 45.9486131,26.2506593 45.8484307,26.2506593 L43.8139051,26.2506593 C43.7590511,26.2506593 43.7239051,26.2869231 43.7239051,26.341978 L43.7239051,28.0961538" id="Fill-53"></path>
            </g>
        </g>
    </g>
</svg>