<svg version="1.1" id="Layer_1" xmlns="http://www.w3.org/2000/svg" xmlns:xlink="http://www.w3.org/1999/xlink" >
	<g xmlns="http://www.w3.org/2000/svg">
	<g>
		<defs>
			<path id="SVGID_3_" d="M372.6,37.5c-0.8,0.8-1.4,1.7-1.9,2.6l-9.3,0c-0.7,0-1.3-0.6-1.3-1.3c0-0.7,0.6-1.3,1.3-1.3L372.6,37.5z      M369.7,43.3c-0.1,0.9-0.1,1.7,0,2.6l-8.4,0c-0.7,0-1.3-0.6-1.3-1.3s0.6-1.3,1.3-1.3L369.7,43.3z M383,43.4     c-0.6-2.4-2.9-3.8-5.2-3.2l-0.2,0.1c-2.2,0.7-3.6,3.1-3.1,5.5c0.5,2.1,2.3,3.6,4.3,3.6l0.2,0c0.2,0,0.5-0.1,0.8-0.1l0.2-0.1     c2.2-0.7,3.6-3.1,3.1-5.5L383,43.4z M370.7,49.2c0.5,1,1.2,1.9,2,2.6l-11.3,0c-0.7,0-1.3-0.6-1.3-1.3s0.6-1.3,1.3-1.3L370.7,49.2     z M378.8,37.5l0.3,0c3,0.1,5.6,2.3,6.4,5.5l0.1,0.3c0.2,1.4,0.1,2.7-0.4,3.9l4.4,2.9l0.1,0.1c0.5,0.4,0.6,1.1,0.3,1.7l-0.1,0.1     c-0.4,0.5-1.1,0.6-1.6,0.3l-4.4-2.9l-0.2,0.2c-0.9,0.9-2,1.6-3.3,1.9l-0.2,0.1c-3.6,0.7-7.1-1.7-7.9-5.4l-0.1-0.2     c-0.7-3.7,1.6-7.4,5.1-8.3C377.7,37.6,378.3,37.5,378.8,37.5z"/>
		</defs>
		<use xlink:href="#SVGID_3_" xmlns:xlink="http://www.w3.org/1999/xlink" style="overflow:visible;fill:#EA4E55;"/>
		<clipPath id="SVGID_4_">
			<use xlink:href="#SVGID_3_" xmlns:xlink="http://www.w3.org/1999/xlink" style="overflow:visible;"/>
		</clipPath>
	</g>
</g></svg>
