<svg version="1.1" id="Layer_1" xmlns="http://www.w3.org/2000/svg" xmlns:xlink="http://www.w3.org/1999/xlink" >
<g xmlns="http://www.w3.org/2000/svg">
	<path class="st7" d="M225,63.1c3.9,0,4.3,0,5.9,0.1c1.4,0.1,2.2,0.3,2.7,0.5c0.7,0.3,1.2,0.6,1.7,1.1c0.5,0.5,0.8,1,1.1,1.7   c0.2,0.5,0.4,1.3,0.5,2.7c0.1,1.5,0.1,2,0.1,5.9s0,4.3-0.1,5.9c-0.1,1.4-0.3,2.2-0.5,2.7c-0.3,0.7-0.6,1.2-1.1,1.7   c-0.5,0.5-1,0.8-1.7,1.1c-0.5,0.2-1.3,0.4-2.7,0.5c-1.5,0.1-2,0.1-5.9,0.1s-4.3,0-5.9-0.1c-1.4-0.1-2.2-0.3-2.7-0.5   c-0.7-0.3-1.2-0.6-1.7-1.1c-0.5-0.5-0.8-1-1.1-1.7c-0.2-0.5-0.4-1.3-0.5-2.7c-0.1-1.5-0.1-2-0.1-5.9s0-4.3,0.1-5.9   c0.1-1.4,0.3-2.2,0.5-2.7c0.3-0.7,0.6-1.2,1.1-1.7c0.5-0.5,1-0.8,1.7-1.1c0.5-0.2,1.3-0.4,2.7-0.5C220.7,63.1,221.1,63.1,225,63.1    M225,60.5c-3.9,0-4.4,0-6,0.1c-1.5,0.1-2.6,0.3-3.5,0.7c-1,0.4-1.8,0.9-2.6,1.7c-0.8,0.8-1.3,1.6-1.7,2.6c-0.4,0.9-0.6,2-0.7,3.5   c-0.1,1.5-0.1,2-0.1,6c0,3.9,0,4.4,0.1,6c0.1,1.5,0.3,2.6,0.7,3.5c0.4,1,0.9,1.8,1.7,2.6c0.8,0.8,1.6,1.3,2.6,1.7   c0.9,0.4,2,0.6,3.5,0.7c1.5,0.1,2,0.1,6,0.1s4.4,0,6-0.1c1.5-0.1,2.6-0.3,3.5-0.7c1-0.4,1.8-0.9,2.6-1.7c0.8-0.8,1.3-1.6,1.7-2.6   c0.4-0.9,0.6-2,0.7-3.5c0.1-1.5,0.1-2,0.1-6s0-4.4-0.1-6c-0.1-1.5-0.3-2.6-0.7-3.5c-0.4-1-0.9-1.8-1.7-2.6   c-0.8-0.8-1.6-1.3-2.6-1.7c-0.9-0.4-2-0.6-3.5-0.7C229.4,60.5,228.9,60.5,225,60.5L225,60.5z"/>
	<path class="st7" d="M225,67.6c-4.1,0-7.4,3.3-7.4,7.4s3.3,7.4,7.4,7.4s7.4-3.3,7.4-7.4S229.1,67.6,225,67.6z M225,79.8   c-2.7,0-4.8-2.2-4.8-4.8c0-2.7,2.2-4.8,4.8-4.8s4.8,2.2,4.8,4.8C229.8,77.7,227.7,79.8,225,79.8z"/>
	<circle class="st7" cx="232.7" cy="67.3" r="1.7"/>
</g></svg>
