<?xml version="1.0" encoding="iso-8859-1"?>
<!-- Generator: Adobe Illustrator 22.0.1, SVG Export Plug-In . SVG Version: 6.00 Build 0)  -->
<svg version="1.1" id="Layer_1" xmlns="http://www.w3.org/2000/svg" xmlns:xlink="http://www.w3.org/1999/xlink" x="0px" y="0px"
	 viewBox="0 0 600 600" style="enable-background:new 0 0 600 600;" xml:space="preserve">
<path d="M377.81,413.226c-85.585,64.776-202.479,46.288-265.257-32.445c-61.16-76.703-54.645-187.207,15.058-255.141
	c70.548-68.758,180.517-73.483,255.385-11.371c77.712,64.472,93.608,179.618,29.28,264.633c1.484,0.913,3.481,1.68,4.866,3.061
	c34.932,34.82,69.801,69.704,104.679,104.578c9.751,9.749,12.19,20.412,7.036,30.729c-7.296,14.607-25.792,19.051-37.976,8.215
	c-11.933-10.613-22.909-22.306-34.227-33.603c-25.121-25.073-50.191-50.196-75.289-75.292
	C380.199,415.424,378.971,414.322,377.81,413.226z M261.321,120.329c-77.861,0.291-141.291,63.923-140.993,141.443
	c0.299,77.86,63.868,141.237,141.44,141.012c77.762-0.225,141.291-63.954,141.017-141.462
	C402.508,183.513,338.823,120.04,261.321,120.329z"/>
</svg>
