<?xml version="1.0" encoding="utf-8"?>
<!-- Generator: Adobe Illustrator 22.0.1, SVG Export Plug-In . SVG Version: 6.00 Build 0)  -->
<svg version="1.1" id="Layer_1" xmlns="http://www.w3.org/2000/svg" xmlns:xlink="http://www.w3.org/1999/xlink" x="0px" y="0px"
	 viewBox="0 0 600 600" style="enable-background:new 0 0 600 600;" xml:space="preserve">
<style type="text/css">
	.st0{fill:#EA4E55;}
</style>
<path class="st0" d="M377.8,413.2c-85.6,64.8-202.5,46.3-265.3-32.4c-61.2-76.7-54.6-187.2,15.1-255.1
	c70.5-68.8,180.5-73.5,255.4-11.4c77.7,64.5,93.6,179.6,29.3,264.6c1.5,0.9,3.5,1.7,4.9,3.1c34.9,34.8,69.8,69.7,104.7,104.6
	c9.8,9.7,12.2,20.4,7,30.7c-7.3,14.6-25.8,19.1-38,8.2c-11.9-10.6-22.9-22.3-34.2-33.6c-25.1-25.1-50.2-50.2-75.3-75.3
	C380.2,415.4,379,414.3,377.8,413.2z M261.3,120.3c-77.9,0.3-141.3,63.9-141,141.4c0.3,77.9,63.9,141.2,141.4,141
	c77.8-0.2,141.3-64,141-141.5C402.5,183.5,338.8,120,261.3,120.3z"/>
</svg>
