<svg version="1.1" id="Layer_1" xmlns="http://www.w3.org/2000/svg" xmlns:xlink="http://www.w3.org/1999/xlink" >
	<g xmlns="http://www.w3.org/2000/svg">
<path xmlns="http://www.w3.org/2000/svg" class="st0" d="M12.5,30.5c-6.6,0-12,5.4-12,12c0,6.6,5.4,12,12,12c2.5,0,4.9-0.8,6.8-2.2l6.5,6.5c0.8,0.8,2.2,0.8,3,0   c0.8-0.8,0.8-2.2,0-3l-6.5-6.5c1.4-2,2.2-4.3,2.2-6.9C24.5,35.9,19.1,30.5,12.5,30.5 M12.5,34.7c4.3,0,7.8,3.5,7.8,7.8   c0,4.3-3.5,7.8-7.8,7.8c-4.3,0-7.8-3.5-7.8-7.8C4.7,38.2,8.2,34.7,12.5,34.7"/>
	</g></svg>
